<svg width="267" height="267" viewBox="0 0 267 267" fill="none" xmlns="http://www.w3.org/2000/svg">
<path d="M131.572 239.873C171.448 239.873 203.774 233.408 203.774 225.434C203.774 217.459 171.448 210.994 131.572 210.994C91.6961 210.994 59.3701 217.459 59.3701 225.434C59.3701 233.408 91.6961 239.873 131.572 239.873Z" fill="#DC5303"/>
<path opacity="0.5" d="M131.572 239.873C171.448 239.873 203.774 233.408 203.774 225.434C203.774 217.459 171.448 210.994 131.572 210.994C91.6961 210.994 59.3701 217.459 59.3701 225.434C59.3701 233.408 91.6961 239.873 131.572 239.873Z" fill="#FF6003"/>
<path d="M208.223 33.3484H156.163C154.385 33.3484 152.943 34.79 152.943 36.5684V93.9574C152.943 95.7358 154.385 97.1774 156.163 97.1774H208.223C210.001 97.1774 211.443 95.7358 211.443 93.9574V36.5684C211.443 34.79 210.001 33.3484 208.223 33.3484Z" fill="white" stroke="#654321" stroke-width="0.534" stroke-linecap="round" stroke-linejoin="round"/>
<path d="M156.163 33.3483H208.217C209.067 33.3483 209.882 33.6859 210.483 34.2867C211.084 34.8876 211.421 35.7026 211.421 36.5523V39.8951H152.943V36.5683C152.941 36.1449 153.023 35.7252 153.184 35.3336C153.345 34.9419 153.582 34.5861 153.881 34.2867C154.181 33.9873 154.537 33.7502 154.928 33.5891C155.32 33.428 155.739 33.3462 156.163 33.3483Z" fill="#654321" stroke="#654321" stroke-width="0.534" stroke-linecap="round" stroke-linejoin="round"/>
<path d="M156.131 67.4282H179.67" stroke="#654321" stroke-width="0.534" stroke-linecap="round" stroke-linejoin="round"/>
<path d="M156.131 70.4667H179.67" stroke="#654321" stroke-width="0.534" stroke-linecap="round" stroke-linejoin="round"/>
<path d="M156.131 73.505H179.67" stroke="#654321" stroke-width="0.534" stroke-linecap="round" stroke-linejoin="round"/>
<path d="M156.131 76.5436H179.67" stroke="#654321" stroke-width="0.534" stroke-linecap="round" stroke-linejoin="round"/>
<path d="M156.131 79.582H179.67" stroke="#654321" stroke-width="0.534" stroke-linecap="round" stroke-linejoin="round"/>
<path d="M156.131 82.6259H179.67" stroke="#654321" stroke-width="0.534" stroke-linecap="round" stroke-linejoin="round"/>
<path d="M156.131 85.6643H179.67" stroke="#654321" stroke-width="0.534" stroke-linecap="round" stroke-linejoin="round"/>
<path d="M156.131 88.7028H179.67" stroke="#654321" stroke-width="0.534" stroke-linecap="round" stroke-linejoin="round"/>
<path d="M156.131 91.7412H179.67" stroke="#654321" stroke-width="0.534" stroke-linecap="round" stroke-linejoin="round"/>
<path d="M183.808 67.4282H207.347" stroke="#654321" stroke-width="0.534" stroke-linecap="round" stroke-linejoin="round"/>
<path d="M183.808 70.4667H207.347" stroke="#654321" stroke-width="0.534" stroke-linecap="round" stroke-linejoin="round"/>
<path d="M183.808 73.505H207.347" stroke="#654321" stroke-width="0.534" stroke-linecap="round" stroke-linejoin="round"/>
<path d="M183.808 76.5436H207.347" stroke="#654321" stroke-width="0.534" stroke-linecap="round" stroke-linejoin="round"/>
<path d="M183.808 79.582H207.347" stroke="#654321" stroke-width="0.534" stroke-linecap="round" stroke-linejoin="round"/>
<path d="M183.808 82.6259H207.347" stroke="#654321" stroke-width="0.534" stroke-linecap="round" stroke-linejoin="round"/>
<path d="M183.808 85.6643H207.347" stroke="#654321" stroke-width="0.534" stroke-linecap="round" stroke-linejoin="round"/>
<path d="M183.808 88.7028H207.347" stroke="#654321" stroke-width="0.534" stroke-linecap="round" stroke-linejoin="round"/>
<path d="M183.808 91.7412H207.347" stroke="#654321" stroke-width="0.534" stroke-linecap="round" stroke-linejoin="round"/>
<path d="M171.874 48.1883C171.99 47.8275 172.051 47.4512 172.055 47.0722C172.055 45.6892 170.651 45.6091 169.273 45.6091H168.926V45.2833H174.939V45.6091C173.374 45.6091 172.803 46.6076 172.317 48.0868L169.113 57.6508C168.872 58.361 168.67 58.8896 167.917 58.8896H167.853L165.033 49.7529L162.411 57.6721C162.165 58.3823 161.963 58.911 161.21 58.911H161.151L157.05 45.6091H155.608V45.2833H160.884V45.6091H159.383L162.427 56.0861H162.55L164.846 49.1281L163.778 45.6358H162.336V45.2833H167.618V45.6091H166.117L169.161 56.0861H169.278L171.874 48.1883Z" fill="white"/>
<path d="M207.513 42.2554H183.291V64.1494H207.513V42.2554Z" fill="white" stroke="#654321" stroke-width="1.068" stroke-linecap="round" stroke-linejoin="round"/>
<path d="M207.513 51.4082C206.7 51.4545 205.893 51.567 205.099 51.7446C201.42 52.5456 200.459 57.8269 196.299 57.8269C192.614 57.8269 192.299 52.866 187.018 52.2252C185.733 52.0228 184.417 52.2559 183.28 52.8874V64.1494H207.513V51.4082Z" fill="#654321" stroke="#654321" stroke-width="0.534" stroke-linecap="round" stroke-linejoin="round"/>
<path d="M191.337 47.2643C191.338 47.8034 191.18 48.3307 190.881 48.7794C190.582 49.2281 190.157 49.5779 189.659 49.7847C189.161 49.9915 188.613 50.0459 188.084 49.941C187.555 49.8361 187.069 49.5766 186.688 49.1954C186.307 48.8142 186.048 48.3285 185.943 47.7997C185.838 47.2709 185.892 46.7229 186.099 46.225C186.306 45.7271 186.656 45.3019 187.104 45.003C187.553 44.7042 188.08 44.5452 188.619 44.5463C189.34 44.5463 190.032 44.8326 190.541 45.3424C191.051 45.8521 191.337 46.5435 191.337 47.2643Z" fill="white" stroke="#654321" stroke-width="0.534" stroke-linecap="round" stroke-linejoin="round"/>
<path d="M208.618 35.2654H154.7V37.3426H208.618V35.2654Z" fill="white" stroke="#654321" stroke-width="0.534" stroke-linecap="round" stroke-linejoin="round"/>
<path d="M205.254 109.913H181.912C180.995 109.913 180.114 110.278 179.466 110.927C178.817 111.576 178.452 112.456 178.452 113.374V125.859C178.452 126.776 178.817 127.656 179.466 128.305C180.114 128.954 180.995 129.319 181.912 129.319H182.628C181.902 130.921 180.492 133.377 178.265 134.835C178.265 134.835 183.002 134.504 187.936 129.319H205.243C206.161 129.319 207.041 128.954 207.69 128.305C208.339 127.656 208.703 126.776 208.703 125.859V113.374C208.703 112.458 208.34 111.579 207.693 110.931C207.047 110.282 206.169 109.916 205.254 109.913Z" fill="#654321" stroke="#654321" stroke-width="0.534" stroke-linecap="round" stroke-linejoin="round"/>
<path d="M189.571 119.173C189.572 118.82 189.468 118.474 189.272 118.18C189.077 117.886 188.798 117.656 188.472 117.521C188.146 117.385 187.787 117.349 187.44 117.418C187.094 117.487 186.776 117.657 186.526 117.906C186.276 118.156 186.106 118.474 186.037 118.821C185.969 119.167 186.005 119.526 186.14 119.852C186.276 120.179 186.505 120.457 186.799 120.653C187.094 120.848 187.439 120.952 187.792 120.951C188.264 120.95 188.715 120.762 189.048 120.429C189.381 120.095 189.569 119.644 189.571 119.173Z" fill="white" stroke="#654321" stroke-width="0.534" stroke-linecap="round" stroke-linejoin="round"/>
<path d="M195.62 119.173C195.62 118.821 195.516 118.477 195.321 118.185C195.125 117.892 194.848 117.664 194.523 117.53C194.198 117.395 193.84 117.36 193.495 117.429C193.15 117.497 192.833 117.667 192.585 117.915C192.336 118.164 192.167 118.481 192.098 118.826C192.03 119.171 192.065 119.528 192.199 119.853C192.334 120.178 192.562 120.456 192.854 120.651C193.147 120.847 193.49 120.951 193.842 120.951C194.313 120.95 194.765 120.762 195.098 120.429C195.431 120.095 195.619 119.644 195.62 119.173Z" fill="white" stroke="#654321" stroke-width="0.534" stroke-linecap="round" stroke-linejoin="round"/>
<path d="M201.676 119.173C201.677 118.82 201.573 118.474 201.378 118.18C201.183 117.886 200.904 117.657 200.579 117.521C200.253 117.385 199.894 117.349 199.548 117.418C199.201 117.486 198.883 117.655 198.633 117.904C198.383 118.154 198.213 118.471 198.144 118.818C198.074 119.164 198.109 119.523 198.244 119.849C198.379 120.175 198.608 120.454 198.901 120.65C199.194 120.846 199.539 120.951 199.892 120.951C200.364 120.95 200.816 120.762 201.15 120.429C201.484 120.096 201.673 119.644 201.676 119.173Z" fill="white" stroke="#654321" stroke-width="0.534" stroke-linecap="round" stroke-linejoin="round"/>
<path d="M76.896 40.9204H115.344C116.259 40.9204 117.136 41.2839 117.783 41.9308C118.43 42.5777 118.794 43.4551 118.794 44.37V71.022H73.4624V44.37C73.4624 43.4579 73.8236 42.5829 74.4671 41.9364C75.1106 41.29 75.9839 40.9246 76.896 40.9204Z" fill="white" stroke="#654321" stroke-width="0.534" stroke-linecap="round" stroke-linejoin="round"/>
<path d="M118.772 66.7233H73.4624V71.0059H118.772V66.7233Z" fill="#654321" stroke="#654321" stroke-width="0.534" stroke-linecap="round" stroke-linejoin="round"/>
<path d="M116.7 68.1865H75.5396V69.5429H116.7V68.1865Z" fill="white" stroke="#654321" stroke-width="0.534" stroke-linecap="round" stroke-linejoin="round"/>
<path d="M96.1203 60.8386C99.5768 60.8386 102.379 58.0366 102.379 54.5801C102.379 51.1237 99.5768 48.3217 96.1203 48.3217C92.6638 48.3217 89.8618 51.1237 89.8618 54.5801C89.8618 58.0366 92.6638 60.8386 96.1203 60.8386Z" fill="#654321" stroke="#654321" stroke-width="0.534" stroke-linecap="round" stroke-linejoin="round"/>
<path d="M93.2949 50.6873L100.05 54.5855L93.2949 58.4837V50.6873Z" fill="white" stroke="#654321" stroke-width="0.534" stroke-linecap="round" stroke-linejoin="round"/>
<path d="M99.1744 81.969H56.1714C55.3397 81.969 54.6655 82.6432 54.6655 83.4749V99.8633C54.6655 100.695 55.3397 101.369 56.1714 101.369H99.1744C100.006 101.369 100.68 100.695 100.68 99.8633V83.4749C100.68 82.6432 100.006 81.969 99.1744 81.969Z" fill="#654321" stroke="#654321" stroke-width="0.534" stroke-linecap="round" stroke-linejoin="round"/>
<path d="M60.1442 84.6123L60.3685 84.9861C59.3539 85.5521 58.4087 86.5454 58.4087 87.7095C58.3957 87.9095 58.4228 88.11 58.4883 88.2994C58.5538 88.4888 58.6565 88.6632 58.7903 88.8124C58.9241 88.9616 59.0863 89.0826 59.2674 89.1683C59.4486 89.254 59.645 89.3027 59.8452 89.3115C59.9947 89.3115 60.0962 89.2367 60.0962 89.0872C60.0962 88.9377 60.0214 88.8896 59.8719 88.8629C59.6703 88.8083 59.4946 88.6838 59.3762 88.5117C59.2579 88.3395 59.2046 88.1309 59.2258 87.9231C59.2296 87.7573 59.2672 87.594 59.3362 87.4432C59.4052 87.2924 59.5041 87.1571 59.627 87.0457C59.7499 86.9343 59.8941 86.8491 60.051 86.7952C60.2078 86.7413 60.374 86.7199 60.5394 86.7323C60.7193 86.7329 60.8973 86.7696 61.0628 86.8402C61.2283 86.9108 61.3779 87.0139 61.5029 87.1433C61.6278 87.2728 61.7256 87.426 61.7903 87.5938C61.855 87.7617 61.8854 87.9409 61.8797 88.1207C61.8771 88.3467 61.829 88.5698 61.7382 88.7768C61.6474 88.9838 61.5159 89.1704 61.3514 89.3254C61.1869 89.4804 60.9929 89.6007 60.7809 89.679C60.5689 89.7574 60.3433 89.7922 60.1175 89.7814C59.8369 89.7996 59.5555 89.7586 59.2917 89.6611C59.0279 89.5636 58.7875 89.4117 58.5861 89.2154C58.3848 89.0191 58.2269 88.7826 58.1227 88.5213C58.0186 88.2601 57.9705 87.9799 57.9815 87.6988C57.9655 86.3478 59.0068 85.2584 60.1442 84.6123ZM64.7313 84.6123L64.9556 84.9861C63.9356 85.5521 62.9958 86.5454 62.9958 87.7095C62.9821 87.9096 63.0086 88.1105 63.0738 88.3002C63.1391 88.4899 63.2417 88.6646 63.3756 88.8139C63.5095 88.9633 63.6721 89.0843 63.8535 89.1697C64.035 89.2552 64.2318 89.3034 64.4323 89.3115C64.5818 89.3115 64.6832 89.2367 64.6832 89.0872C64.6832 88.9377 64.6085 88.8896 64.459 88.8629C64.2573 88.8083 64.0817 88.6838 63.9633 88.5117C63.845 88.3395 63.7916 88.1309 63.8128 87.9231C63.8159 87.7571 63.853 87.5934 63.9217 87.4422C63.9904 87.291 64.0894 87.1555 64.2124 87.0439C64.3355 86.9324 64.48 86.8472 64.6372 86.7936C64.7944 86.74 64.9609 86.7191 65.1265 86.7323C65.3064 86.7329 65.4843 86.7696 65.6498 86.8402C65.8153 86.9108 65.965 87.0139 66.0899 87.1433C66.2149 87.2728 66.3126 87.426 66.3774 87.5938C66.4421 87.7617 66.4725 87.9409 66.4668 88.1207C66.4634 88.3465 66.4148 88.5693 66.3238 88.7759C66.2328 88.9825 66.1012 89.1688 65.9369 89.3237C65.7725 89.4785 65.5788 89.5989 65.3671 89.6775C65.1555 89.7561 64.9302 89.7915 64.7046 89.7814C64.4241 89.7988 64.1431 89.7572 63.8797 89.6594C63.6163 89.5616 63.3762 89.4097 63.175 89.2135C62.9738 89.0173 62.8159 88.7812 62.7115 88.5204C62.607 88.2595 62.5584 87.9796 62.5686 87.6988C62.5472 86.3478 63.5885 85.2584 64.7313 84.6123Z" fill="white"/>
<path d="M69.1211 88.564H95.3085" stroke="white" stroke-width="0.534" stroke-linecap="round" stroke-linejoin="round"/>
<path d="M69.1211 90.812H95.3085" stroke="white" stroke-width="0.534" stroke-linecap="round" stroke-linejoin="round"/>
<path d="M69.1211 93.0602H95.3085" stroke="white" stroke-width="0.534" stroke-linecap="round" stroke-linejoin="round"/>
<path d="M69.1211 95.3137H95.3085" stroke="white" stroke-width="0.534" stroke-linecap="round" stroke-linejoin="round"/>
<path d="M90.675 131.449C96.0802 130.567 99.7467 125.47 98.8645 120.065C97.9823 114.66 92.8854 110.993 87.4802 111.875C82.0751 112.758 78.4085 117.855 79.2908 123.26C80.173 128.665 85.2699 132.331 90.675 131.449Z" fill="#654321" stroke="#654321" stroke-width="0.534" stroke-linecap="round" stroke-linejoin="round"/>
<path d="M95.3674 127.195C98.4169 123.723 98.0741 118.436 94.6017 115.386C91.1293 112.337 85.8422 112.68 82.7927 116.152C79.7431 119.624 80.0859 124.911 83.5584 127.961C87.0308 131.011 92.3179 130.668 95.3674 127.195Z" fill="white" stroke="#654321" stroke-width="0.534" stroke-linecap="round" stroke-linejoin="round"/>
<path d="M89.082 115.611V121.661H93.1725" stroke="#654321" stroke-width="1.068" stroke-linecap="round" stroke-linejoin="round"/>
<path d="M151.122 121.683C151.122 121.683 156.809 133.82 156.809 134.461C156.809 135.102 151.763 137.847 150.802 138.424C150.056 138.848 149.288 139.232 148.5 139.572L149.077 145.195C149.077 145.195 157.765 143.214 161.407 141.232C165.049 139.251 164.921 137.014 164.077 133.692C163.233 130.371 157.621 117.533 157.621 117.533L151.122 121.683Z" fill="white"/>
<mask id="mask0_148_50" style="mask-type:luminance" maskUnits="userSpaceOnUse" x="148" y="117" width="17" height="29">
<path d="M151.122 121.683C151.122 121.683 156.809 133.82 156.809 134.461C156.809 135.102 151.763 137.847 150.802 138.424C150.056 138.848 149.288 139.232 148.5 139.572L149.077 145.195C149.077 145.195 157.765 143.214 161.407 141.232C165.049 139.251 164.921 137.014 164.077 133.692C163.233 130.371 157.621 117.533 157.621 117.533L151.122 121.683Z" fill="white"/>
</mask>
<g mask="url(#mask0_148_50)">
<g style="mix-blend-mode:multiply" opacity="0.5">
<path d="M161.391 141.232C165.033 139.251 164.905 137.014 164.061 133.692C163.217 130.371 157.605 117.533 157.605 117.533L156.697 118.11L156.409 118.644C156.409 118.644 161.647 131.503 161.962 135.786C162.176 138.664 156.382 142.252 152.553 144.303C155.394 143.55 159.26 142.391 161.391 141.232Z" fill="#E1AFD1"/>
</g>
</g>
<path d="M151.122 121.683C151.122 121.683 156.809 133.82 156.809 134.461C156.809 135.102 151.763 137.847 150.802 138.424C150.056 138.848 149.288 139.232 148.5 139.572L149.077 145.195C149.077 145.195 157.765 143.214 161.407 141.232C165.049 139.251 164.921 137.014 164.077 133.692C163.233 130.371 157.621 117.533 157.621 117.533L151.122 121.683Z" stroke="#654321" stroke-width="0.534" stroke-linecap="round" stroke-linejoin="round"/>
<path d="M110.089 119.002C110.089 119.002 105.94 134.205 105.817 136.891C105.694 139.577 114.057 144.874 114.361 145.195C114.666 145.515 113.886 135.956 113.886 135.956L116.722 122.072L110.089 119.002Z" fill="white"/>
<mask id="mask1_148_50" style="mask-type:luminance" maskUnits="userSpaceOnUse" x="105" y="119" width="12" height="27">
<path d="M110.089 119.002C110.089 119.002 105.94 134.205 105.817 136.891C105.694 139.577 114.057 144.874 114.361 145.195C114.666 145.515 113.886 135.956 113.886 135.956L116.722 122.072L110.089 119.002Z" fill="white"/>
</mask>
<g mask="url(#mask1_148_50)">
<g style="mix-blend-mode:multiply" opacity="0.5">
<path d="M111.99 120.246L111.9 119.835L110.089 119.002C110.089 119.002 105.94 134.205 105.817 136.891C105.694 139.577 114.057 144.874 114.361 145.195C114.484 145.323 114.436 143.892 114.335 142.124C111.846 140.015 108.274 137.046 107.857 135.796" fill="#E1AFD1"/>
</g>
</g>
<path d="M110.089 119.002C110.089 119.002 105.94 134.205 105.817 136.891C105.694 139.577 114.057 144.874 114.361 145.195C114.666 145.515 113.886 135.956 113.886 135.956L116.722 122.072L110.089 119.002Z" stroke="#654321" stroke-width="0.534" stroke-linecap="round" stroke-linejoin="round"/>
<path d="M129.575 103.73C129.575 103.73 127.973 104.883 124.849 105.011C121.725 105.139 121.576 102.875 117.694 102.875C112.989 102.875 107.088 117.758 107.088 117.758C107.088 117.758 110.025 120.636 112.904 121.848C114.496 122.546 116.17 123.039 117.886 123.317L118.334 133.094H150.022L150.401 123.317L160.307 116.893C160.307 116.893 155.447 108.204 153.087 104.947C150.727 101.69 146.759 102.902 145.547 103.73C144.335 104.557 140.741 104.755 139.417 104.563C137.689 104.18 135.982 103.711 134.301 103.158C134.301 103.158 132.261 101.46 129.575 103.73Z" fill="#654321" stroke="#654321" stroke-width="0.534" stroke-linecap="round" stroke-linejoin="round"/>
<path d="M118.206 107.179L118.078 123.407" stroke="#654321" stroke-width="0.267" stroke-linecap="round" stroke-linejoin="round"/>
<path d="M119.354 108.653C119.354 108.653 119.803 116.572 121.49 120.983" stroke="#654321" stroke-width="0.267" stroke-linecap="round" stroke-linejoin="round"/>
<path d="M121.784 121.619C122.149 122.695 122.597 123.741 123.125 124.748" stroke="#654321" stroke-width="0.267" stroke-linecap="round" stroke-linejoin="round"/>
<path d="M120.375 107.756C120.981 110.635 121.837 113.457 122.932 116.188" stroke="#654321" stroke-width="0.267" stroke-linecap="round" stroke-linejoin="round"/>
<path d="M147.918 109.16C147.918 109.16 146.385 115.424 145.04 118.238" stroke="#654321" stroke-width="0.267" stroke-linecap="round" stroke-linejoin="round"/>
<path d="M150.401 123.343L150.337 110.693" stroke="#654321" stroke-width="0.267" stroke-linecap="round" stroke-linejoin="round"/>
<path d="M149.702 110.949C149.702 110.949 148.548 118.959 145.739 123.151" stroke="#654321" stroke-width="0.267" stroke-linecap="round" stroke-linejoin="round"/>
<path d="M148.297 121.554C148.297 121.554 147.015 123.984 146.124 125.26" stroke="#654321" stroke-width="0.267" stroke-linecap="round" stroke-linejoin="round"/>
<path d="M127.786 104.691C127.786 104.691 128.683 110.186 129.96 112.994C131.236 115.803 133.473 116.38 135.39 115.552C137.307 114.725 138.712 110.629 138.594 105.406" stroke="#654321" stroke-width="0.267" stroke-linecap="round" stroke-linejoin="round"/>
<path d="M123.253 93.1883C123.253 93.1883 122.035 91.0844 121.079 92.1684C120.124 93.2524 121.848 95.7462 122.804 96.5739C123.76 97.4016 124.465 96.8943 124.406 96.0025C124.347 95.1107 123.253 93.1883 123.253 93.1883Z" fill="#E1AFD1" stroke="#654321" stroke-width="0.534" stroke-linecap="round" stroke-linejoin="round"/>
<path opacity="0.5" d="M123.253 93.1883C123.253 93.1883 122.035 91.0844 121.079 92.1684C120.124 93.2524 121.848 95.7462 122.804 96.5739C123.76 97.4016 124.465 96.8943 124.406 96.0025C124.347 95.1107 123.253 93.1883 123.253 93.1883Z" fill="white"/>
<path d="M123.253 93.1883C123.253 93.1883 122.035 91.0844 121.079 92.1684C120.124 93.2524 121.848 95.7462 122.804 96.5739C123.76 97.4016 124.465 96.8943 124.406 96.0025C124.347 95.1107 123.253 93.1883 123.253 93.1883Z" stroke="#654321" stroke-width="0.534" stroke-linecap="round" stroke-linejoin="round"/>
<path d="M142.578 93.1883C142.578 93.1883 143.79 91.0844 144.751 92.1684C145.712 93.2524 143.982 95.7462 143.026 96.5739C142.071 97.4016 141.36 96.8943 141.424 96.0025C141.489 95.1107 142.578 93.1883 142.578 93.1883Z" fill="#E1AFD1" stroke="#654321" stroke-width="0.534" stroke-linecap="round" stroke-linejoin="round"/>
<path opacity="0.5" d="M142.578 93.1883C142.578 93.1883 143.79 91.0844 144.751 92.1684C145.712 93.2524 143.982 95.7462 143.026 96.5739C142.071 97.4016 141.36 96.8943 141.424 96.0025C141.489 95.1107 142.578 93.1883 142.578 93.1883Z" fill="white"/>
<path d="M142.578 93.1883C142.578 93.1883 143.79 91.0844 144.751 92.1684C145.712 93.2524 143.982 95.7462 143.026 96.5739C142.071 97.4016 141.36 96.8943 141.424 96.0025C141.489 95.1107 142.578 93.1883 142.578 93.1883Z" stroke="#654321" stroke-width="0.534" stroke-linecap="round" stroke-linejoin="round"/>
<path d="M128.999 103.286C129.602 106.013 130.37 108.7 131.3 111.334C132.454 114.207 134.622 114.207 135.519 112.354C136.416 110.501 136.987 103.596 136.987 103.596C136.987 103.596 130.98 104.434 128.999 103.286Z" fill="white" stroke="#654321" stroke-width="0.534" stroke-linecap="round" stroke-linejoin="round"/>
<path d="M123.381 93.8933C123.381 93.8933 125.042 99.7673 128.187 103.222C131.332 106.677 132.459 107.494 134.13 107.243C135.802 106.992 137.58 104.819 140.068 100.301C142.557 95.7837 142.738 92.318 142.947 91.9976C143.155 91.6772 142.413 85.2906 138.856 82.5405C135.3 79.7904 131.316 78.5835 127.867 81.5846C124.417 84.5857 122.228 89.4825 123.381 93.8933Z" fill="white"/>
<mask id="mask2_148_50" style="mask-type:luminance" maskUnits="userSpaceOnUse" x="123" y="79" width="20" height="29">
<path d="M123.381 93.8933C123.381 93.8933 125.042 99.7673 128.187 103.222C131.332 106.677 132.459 107.494 134.13 107.243C135.802 106.992 137.58 104.819 140.068 100.301C142.557 95.7837 142.738 92.318 142.947 91.9976C143.155 91.6772 142.413 85.2906 138.856 82.5405C135.3 79.7904 131.316 78.5835 127.867 81.5846C124.417 84.5857 122.228 89.4825 123.381 93.8933Z" fill="white"/>
</mask>
<g mask="url(#mask2_148_50)">
<g style="mix-blend-mode:multiply" opacity="0.5">
<path d="M138.84 82.519C135.262 79.7742 131.3 78.562 127.85 81.5631C124.401 84.5642 122.227 89.4823 123.381 93.8932C123.381 93.8932 123.696 95.0252 124.321 96.5632C124.319 96.3663 124.346 96.1702 124.401 95.9811C125.164 93.5621 127.418 88.8789 135.001 91.0256C141.024 92.7237 140.287 98.021 139.727 100.846L140.052 100.258C142.546 95.7248 142.722 92.2751 142.931 91.9547C143.139 91.6343 142.418 85.2691 138.84 82.519Z" fill="#E1AFD1"/>
</g>
</g>
<path d="M123.381 93.8933C123.381 93.8933 125.042 99.7673 128.187 103.222C131.332 106.677 132.459 107.494 134.13 107.243C135.802 106.992 137.58 104.819 140.068 100.301C142.557 95.7837 142.738 92.318 142.947 91.9976C143.155 91.6772 142.413 85.2906 138.856 82.5405C135.3 79.7904 131.316 78.5835 127.867 81.5846C124.417 84.5857 122.228 89.4825 123.381 93.8933Z" stroke="#654321" stroke-width="0.534" stroke-linecap="round" stroke-linejoin="round"/>
<path d="M134.114 96.9584C133.916 98.2056 133.809 99.4656 133.793 100.728C133.858 102.005 134.242 102.389 133.665 102.517C133.089 102.645 132.453 101.748 132.453 101.748" stroke="#654321" stroke-width="0.534" stroke-linecap="round" stroke-linejoin="round"/>
<path d="M127.722 97.9836C128.092 98.251 128.534 98.4002 128.991 98.4116C129.447 98.4231 129.896 98.2962 130.28 98.0477" stroke="#654321" stroke-width="0.534" stroke-linecap="round" stroke-linejoin="round"/>
<path d="M135.839 97.9836C136.208 98.2505 136.65 98.3995 137.105 98.4109C137.561 98.4224 138.009 98.2958 138.391 98.0477" stroke="#654321" stroke-width="0.534" stroke-linecap="round" stroke-linejoin="round"/>
<path d="M131.802 95.8317C131.802 95.8317 130.584 92.8252 126.563 94.2297" stroke="#654321" stroke-width="0.534" stroke-linecap="round" stroke-linejoin="round"/>
<path d="M135.15 95.4631C135.15 95.4631 136.17 92.5208 139.812 94.2456" stroke="#654321" stroke-width="0.534" stroke-linecap="round" stroke-linejoin="round"/>
<path d="M132.576 98.2026C132.576 99.8473 130.691 101.177 128.363 101.177C126.034 101.177 124.144 99.8473 124.144 98.2026C124.144 96.5579 125.906 95.8744 128.234 95.8744C130.563 95.8744 132.576 96.5632 132.576 98.2026Z" stroke="#654321" stroke-width="0.534" stroke-linecap="round" stroke-linejoin="round"/>
<path d="M142.29 98.2026C142.29 99.8473 140.399 101.177 138.071 101.177C135.743 101.177 133.858 99.8473 133.858 98.2026C133.858 96.5579 135.615 95.8744 137.943 95.8744C140.271 95.8744 142.29 96.5632 142.29 98.2026Z" stroke="#654321" stroke-width="0.534" stroke-linecap="round" stroke-linejoin="round"/>
<path d="M88.4462 149.429L88.1846 214.166C88.1846 214.37 88.2656 214.566 88.4098 214.71C88.554 214.854 88.7496 214.935 88.9535 214.935C89.1524 214.935 89.3435 214.858 89.4861 214.719C89.6287 214.58 89.7116 214.392 89.7171 214.193L91.5648 149.52L88.4462 149.429Z" fill="white" stroke="#654321" stroke-width="0.534" stroke-linecap="round" stroke-linejoin="round"/>
<path d="M84.0889 164.563L83.8379 231.489C83.8372 231.59 83.8566 231.69 83.895 231.784C83.9334 231.878 83.99 231.963 84.0616 232.034C84.1331 232.106 84.2181 232.162 84.3118 232.201C84.4054 232.239 84.5057 232.259 84.6069 232.258C84.8054 232.258 84.9963 232.181 85.1396 232.044C85.2829 231.907 85.3676 231.719 85.3758 231.521L87.2181 164.648L84.0889 164.563Z" fill="white" stroke="#654321" stroke-width="0.534" stroke-linecap="round" stroke-linejoin="round"/>
<path d="M177.945 149.429L178.206 214.166C178.207 214.267 178.188 214.367 178.15 214.46C178.112 214.553 178.056 214.638 177.985 214.709C177.914 214.781 177.829 214.838 177.736 214.876C177.643 214.915 177.544 214.935 177.443 214.935C177.243 214.935 177.052 214.858 176.908 214.719C176.765 214.581 176.681 214.392 176.674 214.193L174.832 149.52L177.945 149.429Z" fill="white" stroke="#654321" stroke-width="0.534" stroke-linecap="round" stroke-linejoin="round"/>
<path d="M182.308 164.563L182.57 231.489C182.57 231.59 182.551 231.69 182.513 231.784C182.474 231.878 182.418 231.963 182.346 232.034C182.274 232.106 182.189 232.162 182.096 232.201C182.002 232.239 181.902 232.259 181.801 232.258C181.603 232.258 181.412 232.181 181.27 232.044C181.128 231.906 181.044 231.719 181.037 231.521L179.189 164.648L182.308 164.563Z" fill="white" stroke="#654321" stroke-width="0.534" stroke-linecap="round" stroke-linejoin="round"/>
<path d="M114.431 167.345L114.276 226.747C114.259 226.895 114.3 227.044 114.391 227.163C114.482 227.281 114.615 227.36 114.762 227.382C114.906 227.363 115.037 227.288 115.128 227.175C115.22 227.062 115.264 226.919 115.253 226.774L116.412 167.414L114.431 167.345Z" fill="white" stroke="#654321" stroke-width="0.534" stroke-linecap="round" stroke-linejoin="round"/>
<path d="M152.03 165.433L152.174 217.274C152.186 217.399 152.15 217.525 152.072 217.624C151.995 217.724 151.882 217.789 151.757 217.808C151.633 217.789 151.521 217.723 151.444 217.624C151.368 217.524 151.332 217.399 151.346 217.274L150.358 165.476L152.03 165.433Z" fill="white" stroke="#654321" stroke-width="0.534" stroke-linecap="round" stroke-linejoin="round"/>
<path d="M113.849 165.433L113.993 217.274C114.005 217.399 113.969 217.525 113.891 217.624C113.814 217.724 113.701 217.789 113.576 217.808C113.452 217.789 113.34 217.723 113.263 217.624C113.186 217.524 113.151 217.399 113.165 217.274L112.177 165.476L113.849 165.433Z" fill="white" stroke="#654321" stroke-width="0.534" stroke-linecap="round" stroke-linejoin="round"/>
<path d="M150.957 167.345L151.122 226.747C151.139 226.895 151.098 227.044 151.007 227.163C150.917 227.281 150.784 227.36 150.636 227.382C150.493 227.361 150.363 227.287 150.272 227.174C150.181 227.061 150.136 226.918 150.145 226.774L148.986 167.414L150.957 167.345Z" fill="white" stroke="#654321" stroke-width="0.534" stroke-linecap="round" stroke-linejoin="round"/>
<path d="M132.432 171.505C145.556 171.505 156.195 169.073 156.195 166.074C156.195 163.075 145.556 160.643 132.432 160.643C119.308 160.643 108.669 163.075 108.669 166.074C108.669 169.073 119.308 171.505 132.432 171.505Z" fill="white" stroke="#654321" stroke-width="0.534" stroke-linecap="round" stroke-linejoin="round"/>
<path d="M120.86 212.174C120.86 212.174 119.616 213.958 120.508 214.844C121.4 215.731 122.286 215.378 122.195 216.27C122.104 217.162 120.684 220.184 119.44 223.388C118.196 226.592 120.775 229.796 123.178 228.91C125.581 228.023 125.314 219.116 125.666 217.514C126.019 215.912 126.291 215.645 126.2 214.134C126.109 212.623 126.024 211.021 124.865 210.839C123.706 210.658 121.394 211.555 120.86 212.174Z" fill="white" stroke="#654321" stroke-width="0.534" stroke-linecap="round" stroke-linejoin="round"/>
<path d="M124.678 226.453C123.076 225.845 120.62 225.968 119.237 226.106C119.701 228.12 121.48 229.535 123.178 228.91C123.888 228.648 124.353 227.698 124.678 226.453Z" fill="#E1AFD1" stroke="#654321" stroke-width="0.534" stroke-linecap="round" stroke-linejoin="round"/>
<path d="M118.105 208.26C118.105 208.26 120.684 212.623 121.394 213.776C122.105 214.93 124.513 214.577 124.78 212.975C125.047 211.373 123.797 206.925 123.797 206.925L118.457 208.26H118.105Z" fill="white" stroke="#654321" stroke-width="0.534" stroke-linecap="round" stroke-linejoin="round"/>
<path d="M111.964 201.318C111.964 201.318 111.248 202.477 111.606 203.278C111.964 204.079 112.941 206.391 113.566 207.55C114.191 208.709 117.037 209.419 120.326 208.885C123.616 208.351 125.49 206.834 125.581 205.499C125.672 204.164 125.047 202.386 124.598 200.25C124.15 198.114 122.996 198.205 121.394 198.205C119.792 198.205 113.299 200.074 111.964 201.318Z" fill="#E1AFD1" stroke="#654321" stroke-width="0.534" stroke-linecap="round" stroke-linejoin="round"/>
<path d="M121.575 175.152C121.623 172.963 122.889 171.884 122.985 170.383C123.136 168.4 122.972 166.404 122.499 164.472L120.064 161.145C113.058 161.236 108.039 161.353 107.958 161.38C107.691 161.466 107.51 162.982 107.334 164.226C107.334 164.226 104.359 164.605 104.893 172.882C104.968 174.036 107.969 187.381 108.188 188.902C109.523 198.199 112.497 202.856 112.497 202.856C112.497 202.856 112.764 204.015 116.235 203.748C119.706 203.481 123.177 201.168 123.177 201.168C123.177 201.168 121.394 183.071 121.575 175.152Z" fill="#654321" stroke="#654321" stroke-width="0.534" stroke-linecap="round" stroke-linejoin="round"/>
<path d="M106.853 162.87C106.853 162.87 103.174 163.404 100.92 165.978C98.6669 168.552 100.579 170.25 104.957 169.791C109.336 169.331 114.388 164.851 114.601 164.611C114.815 164.371 110.036 161.327 106.853 162.87Z" fill="white" stroke="#654321" stroke-width="0.534" stroke-linecap="round" stroke-linejoin="round"/>
<path d="M113.384 164.472C115.728 164.593 118.054 164.95 120.326 165.54C123.354 166.432 128.694 168.21 129.938 168.21C131.182 168.21 130.83 163.58 130.83 162.694C130.83 161.807 114.81 161.268 112.85 161.268C110.89 161.268 113.384 164.472 113.384 164.472Z" fill="white" stroke="#654321" stroke-width="0.534" stroke-linecap="round" stroke-linejoin="round"/>
<path d="M130.83 162.694C130.83 162.694 129.404 163.404 128.87 166.074C128.336 168.744 127.626 170.17 128.694 170.88C129.762 171.59 134.391 172.124 135.102 171.414C135.812 170.704 137.772 167.142 138.129 164.83C138.487 162.518 130.83 162.694 130.83 162.694Z" fill="#E1AFD1" stroke="#654321" stroke-width="0.534" stroke-linecap="round" stroke-linejoin="round"/>
<path d="M136.88 163.58C136.053 164.53 135.392 165.614 134.926 166.784C134.549 168.01 134.251 169.258 134.034 170.522C135.738 170.989 137.403 171.586 139.016 172.306C141.868 173.55 146.674 174.442 151.298 175.51C155.923 176.578 157.172 177.646 158.774 177.646C160.376 177.646 162.336 176.396 164.83 173.374C167.324 170.351 165.182 163.938 162.694 161.978C160.206 160.018 146.85 158.422 145.072 158.956C143.294 159.49 136.88 163.58 136.88 163.58Z" fill="#654321" stroke="#654321" stroke-width="0.534" stroke-linecap="round" stroke-linejoin="round"/>
<path d="M103.484 169.839C103.132 168.241 102.42 166.745 101.401 165.465C101.236 165.62 101.075 165.78 100.921 165.956C98.9395 168.21 100.178 169.812 103.484 169.839Z" fill="#E1AFD1" stroke="#654321" stroke-width="0.534" stroke-linecap="round" stroke-linejoin="round"/>
<path d="M121.303 171.249C121.303 171.249 119.466 190.905 115.718 193.965" stroke="white" stroke-width="0.267" stroke-linecap="round" stroke-linejoin="round"/>
<path d="M120.006 189.906C120.006 189.906 118.548 196.314 114.725 198.862" stroke="white" stroke-width="0.267" stroke-linecap="round" stroke-linejoin="round"/>
<path d="M143.646 167.676C143.646 167.676 137.948 168.034 141.686 170.522C145.424 173.011 152.19 174.618 152.19 174.618" stroke="white" stroke-width="0.267" stroke-linecap="round" stroke-linejoin="round"/>
<path d="M185.01 160.942L183.087 159.212L178.644 149.6C178.433 149.163 178.103 148.794 177.69 148.538C177.278 148.282 176.801 148.148 176.316 148.153H90.0216C89.5353 148.147 89.0575 148.28 88.6442 148.537C88.2309 148.793 87.8992 149.162 87.688 149.6L82.1504 161.572L81.2373 161.236V163.975L81.28 163.943C81.3344 164.309 81.5199 164.642 81.8019 164.881C82.0839 165.119 82.4432 165.247 82.8126 165.241H183.52C183.909 165.25 184.286 165.107 184.572 164.843C184.858 164.579 185.03 164.214 185.052 163.826L185.01 160.942Z" fill="#654321" stroke="#654321" stroke-width="0.534" stroke-linecap="round" stroke-linejoin="round"/>
<path d="M183.52 162.736H82.8131C82.5637 162.746 82.3159 162.693 82.0929 162.581C81.8699 162.469 81.679 162.302 81.5381 162.096C81.3972 161.89 81.3109 161.651 81.2873 161.403C81.2638 161.154 81.3037 160.904 81.4034 160.675L87.6886 147.096C87.8987 146.657 88.2301 146.287 88.6437 146.031C89.0572 145.774 89.5356 145.642 90.0221 145.648H176.317C176.802 145.643 177.279 145.776 177.692 146.032C178.104 146.288 178.435 146.657 178.645 147.096L184.93 160.675C185.03 160.904 185.07 161.154 185.046 161.403C185.022 161.651 184.936 161.89 184.795 162.096C184.654 162.302 184.463 162.469 184.24 162.581C184.017 162.693 183.77 162.746 183.52 162.736Z" fill="white" stroke="#654321" stroke-width="0.534" stroke-linecap="round" stroke-linejoin="round"/>
<g style="mix-blend-mode:multiply" opacity="0.5">
<path d="M87.9122 153.616C87.9122 153.616 85.632 155.18 87.0578 155.752C88.4836 156.323 104.872 155.896 106.869 155.325C108.866 154.753 111.141 149.483 111.141 148.628C111.141 147.774 108.268 147.16 107.211 147.112C106.154 147.064 92.1842 147.913 92.1842 147.913L87.9122 153.616Z" fill="#E1AFD1"/>
</g>
<g style="mix-blend-mode:multiply" opacity="0.5">
<path d="M169.433 156.323C172.66 156.323 175.275 155.238 175.275 153.899C175.275 152.56 172.66 151.474 169.433 151.474C166.207 151.474 163.591 152.56 163.591 153.899C163.591 155.238 166.207 156.323 169.433 156.323Z" fill="#E1AFD1"/>
</g>
<g style="mix-blend-mode:multiply" opacity="0.5">
<path d="M132.24 159.319C143.81 159.319 153.189 157.564 153.189 155.399C153.189 153.235 143.81 151.48 132.24 151.48C120.67 151.48 111.291 153.235 111.291 155.399C111.291 157.564 120.67 159.319 132.24 159.319Z" fill="#E1AFD1"/>
</g>
<path d="M165.161 144.362C165.161 144.362 164.776 142.829 163.5 143.342C162.224 143.854 162.352 147.24 162.603 149.157C162.854 151.074 164.584 150.177 164.584 150.177V149.029C164.584 149.029 163.949 149.536 163.628 148.836C163.308 148.137 163.372 144.618 163.692 144.682C164.013 144.746 164.648 145.83 164.648 145.83C164.648 145.83 164.84 145.707 165.161 144.362Z" fill="#E1AFD1" stroke="#654321" stroke-width="0.534" stroke-linecap="round" stroke-linejoin="round"/>
<path d="M164.242 144.618V153.012C164.242 154 166.512 154.801 169.315 154.801C172.119 154.801 174.383 154 174.383 153.012V144.618H164.242Z" fill="#E1AFD1" stroke="#654321" stroke-width="0.534" stroke-linecap="round" stroke-linejoin="round"/>
<path d="M174.383 144.618C174.383 145.472 172.113 146.161 169.315 146.161C166.517 146.161 164.242 145.472 164.242 144.618C164.242 143.764 166.512 143.075 169.315 143.075C172.119 143.075 174.383 143.769 174.383 144.618Z" fill="white" stroke="#654321" stroke-width="0.534" stroke-linecap="round" stroke-linejoin="round"/>
<path d="M173.721 144.618C173.721 145.36 171.745 145.958 169.315 145.958C166.885 145.958 164.904 145.36 164.904 144.618C164.904 143.876 166.88 143.277 169.315 143.277C171.75 143.277 173.721 143.876 173.721 144.618Z" fill="white" stroke="#654321" stroke-width="0.534" stroke-linecap="round" stroke-linejoin="round"/>
<path d="M165.914 145.472C168.133 146.12 170.492 146.12 172.711 145.472C170.492 144.825 168.133 144.825 165.914 145.472Z" fill="#654321" stroke="#654321" stroke-width="0.534" stroke-linecap="round" stroke-linejoin="round"/>
<path d="M87.2822 148.452L87.3463 151.325L106.704 151.517V148.196L87.2822 148.452Z" fill="white" stroke="#654321" stroke-width="0.534" stroke-linecap="round" stroke-linejoin="round"/>
<path d="M106.704 151.517L109.518 145.451V143.662L106.576 148.772L106.704 151.517Z" fill="white" stroke="#654321" stroke-width="0.534" stroke-linecap="round" stroke-linejoin="round"/>
<path d="M87.2822 151.069L87.3463 153.947L106.704 154.139V150.818L87.2822 151.069Z" fill="white" stroke="#654321" stroke-width="0.534" stroke-linecap="round" stroke-linejoin="round"/>
<path d="M106.704 154.139L109.518 148.068V146.279L106.576 151.389L106.704 154.139Z" fill="white" stroke="#654321" stroke-width="0.534" stroke-linecap="round" stroke-linejoin="round"/>
<path d="M94.7579 141.168C94.7579 141.168 95.2065 140.277 94.5657 139.892C93.9249 139.508 93.2253 140.426 92.8409 140.72C92.4564 141.013 84.409 146.343 84.1527 147.176C83.8964 148.009 84.1527 149.846 85.8775 150.049C87.6023 150.252 89.1349 149.093 89.9039 148.901C90.6728 148.708 90.9719 148.644 90.9719 148.644L96.2745 141.489L94.7579 141.168Z" fill="white" stroke="#654321" stroke-width="0.534" stroke-linecap="round" stroke-linejoin="round"/>
<path d="M85.8777 150.054C87.6025 150.246 89.1351 149.098 89.9041 148.906C90.673 148.714 90.9721 148.65 90.9721 148.65L91.1643 148.388L86.1821 147.373C85.9112 147.118 85.563 146.961 85.1925 146.926C84.822 146.891 84.4505 146.981 84.1369 147.181C83.8966 148.003 84.1529 149.856 85.8777 150.054Z" fill="white" stroke="#654321" stroke-width="0.534" stroke-linecap="round" stroke-linejoin="round"/>
<path d="M86.1982 147.384H101.15C105.817 147.384 107.222 147.128 107.222 147.128L110.095 141.184C110.095 141.184 101.017 141.761 98.2132 141.569C97.0548 141.535 95.901 141.407 94.7636 141.184L86.1982 147.384Z" fill="white" stroke="#654321" stroke-width="0.534" stroke-linecap="round" stroke-linejoin="round"/>
<path d="M86.1982 147.384L86.4546 148.532C86.4546 148.532 98.5924 148.596 101.786 148.596C104.979 148.596 107.409 148.724 107.409 148.724L107.216 147.122L86.1982 147.384Z" fill="white" stroke="#654321" stroke-width="0.534" stroke-linecap="round" stroke-linejoin="round"/>
<path d="M107.409 148.708L110.089 142.573V141.168L107.216 147.112L107.409 148.708Z" fill="white" stroke="#654321" stroke-width="0.534" stroke-linecap="round" stroke-linejoin="round"/>
<path d="M150.535 155.885H113.929C113.848 155.886 113.767 155.871 113.692 155.84C113.617 155.81 113.549 155.764 113.491 155.707C113.434 155.65 113.388 155.582 113.357 155.507C113.326 155.433 113.31 155.352 113.31 155.271C113.31 155.19 113.326 155.11 113.357 155.035C113.388 154.96 113.434 154.892 113.491 154.835C113.549 154.778 113.617 154.733 113.692 154.702C113.767 154.672 113.848 154.656 113.929 154.657H150.535C150.616 154.656 150.696 154.672 150.771 154.702C150.845 154.733 150.913 154.778 150.971 154.835C151.028 154.893 151.073 154.961 151.104 155.035C151.134 155.11 151.15 155.19 151.149 155.271C151.15 155.352 151.134 155.432 151.104 155.507C151.073 155.582 151.028 155.65 150.971 155.707C150.913 155.764 150.845 155.809 150.771 155.84C150.696 155.871 150.616 155.886 150.535 155.885Z" fill="white" stroke="#654321" stroke-width="0.534" stroke-linecap="round" stroke-linejoin="round"/>
<path d="M150.844 154.646H113.614C113.478 154.647 113.347 154.595 113.247 154.502C113.148 154.408 113.088 154.28 113.08 154.144L111.056 129.821C111.047 129.745 111.054 129.669 111.077 129.597C111.099 129.524 111.137 129.458 111.188 129.401C111.238 129.344 111.3 129.299 111.37 129.268C111.439 129.238 111.514 129.222 111.59 129.223H152.874C152.95 129.222 153.025 129.238 153.094 129.268C153.163 129.299 153.225 129.344 153.276 129.401C153.326 129.458 153.364 129.524 153.387 129.597C153.41 129.669 153.417 129.745 153.408 129.821L151.384 154.144C151.376 154.281 151.315 154.41 151.215 154.503C151.114 154.597 150.982 154.648 150.844 154.646Z" fill="white" stroke="#654321" stroke-width="0.534" stroke-linecap="round" stroke-linejoin="round"/>
<path d="M135.742 142.354C135.742 143.806 134.167 144.981 132.229 144.981C130.29 144.981 128.709 143.806 128.709 142.354C128.709 140.901 130.285 139.732 132.229 139.732C134.172 139.732 135.742 140.907 135.742 142.354Z" fill="white" stroke="#654321" stroke-width="0.534" stroke-linecap="round" stroke-linejoin="round"/>
<path d="M172.124 123.354C172.695 122.908 173.096 122.281 173.261 121.576C173.381 121.047 173.369 120.496 173.224 119.974" stroke="#654321" stroke-width="0.534" stroke-linecap="round" stroke-linejoin="round"/>
<path d="M167.863 142.396C167.863 142.396 171.414 140.26 170.255 137.82C169.096 135.38 165.177 133.762 165.177 129.959C165.177 126.681 168.664 125.469 170.939 124.155" stroke="#654321" stroke-width="0.534" stroke-linecap="round" stroke-linejoin="round"/>
<path d="M171.141 142.327C171.141 142.327 173.122 141.008 173.122 138.915C173.122 137.51 171.622 136.592 169.641 134.333" stroke="#654321" stroke-width="0.534" stroke-linecap="round" stroke-linejoin="round"/>
<path d="M168.546 132.966C168.546 132.966 167.248 131.946 168.204 130.029" stroke="#654321" stroke-width="0.534" stroke-linecap="round" stroke-linejoin="round"/>
<path d="M138.482 77.0294C139.117 76.8959 140.479 76.3726 141.398 74.242C141.412 74.2097 141.419 74.175 141.42 74.1398C141.421 74.1046 141.414 74.0696 141.402 74.0369C141.389 74.0041 141.369 73.9742 141.345 73.9489C141.32 73.9237 141.291 73.9035 141.259 73.8895C141.194 73.8624 141.12 73.8617 141.054 73.8876C140.989 73.9135 140.936 73.964 140.906 74.0284C140.063 75.9828 138.856 76.4153 138.354 76.5115C139.252 75.4244 139.748 74.0608 139.758 72.6506C139.758 68.9447 136.325 65.9436 132.09 65.9436C127.855 65.9436 124.422 68.9447 124.422 72.6506C124.425 74.004 124.875 75.3183 125.703 76.3886C124.897 76.3459 123.535 76.6877 121.811 78.7009C121.761 78.7517 121.734 78.8197 121.734 78.8904C121.734 78.9612 121.761 79.0292 121.811 79.08C121.86 79.1211 121.922 79.1438 121.987 79.1441C122.026 79.1441 122.064 79.1355 122.099 79.1189C122.134 79.1023 122.165 79.078 122.19 79.048C124.395 76.4794 125.853 76.912 126.147 77.0294C125.648 77.3037 125.181 77.6314 124.753 78.0067C122.291 80.2228 120.791 84.4147 120.983 87.907C121.199 90.2233 122.039 92.4378 123.413 94.315C125.201 93.0354 126.683 91.3759 127.754 89.4556C128.552 88.0451 129.265 86.5882 129.89 85.0928C129.89 86.6575 130.093 88.5478 130.915 89.8988C131.508 90.966 132.378 91.8541 133.432 92.4704C134.486 93.0866 135.686 93.4083 136.907 93.4019C137.328 93.4079 137.749 93.3667 138.162 93.2791C138.198 93.27 138.232 93.2534 138.261 93.2304C138.291 93.2074 138.315 93.1785 138.332 93.1456C140.394 93.5834 142.444 93.5461 142.759 93.1082C143.267 92.4086 143.988 90.2246 144.228 87.5546C144.666 83.0263 141.814 79.096 138.482 77.0294ZM131.412 89.5731C130.376 87.8803 130.408 85.1195 130.531 83.5336L130.6 83.352C130.649 84.9832 131.065 86.5823 131.817 88.0309C132.568 89.4795 133.636 90.7403 134.942 91.7198C135.663 92.2182 136.462 92.5918 137.307 92.8252C135.999 92.9159 133.308 92.665 131.412 89.5731Z" fill="#534D71"/>
<path d="M131.503 81.168C131.503 81.168 131.065 84.404 135.177 87.576C139.288 90.7479 143.187 89.4984 143.187 89.4984" stroke="white" stroke-width="0.267" stroke-linecap="round" stroke-linejoin="round"/>
<path d="M132.106 80.1C132.106 80.1 136.437 86.4065 142.418 84.7618" stroke="white" stroke-width="0.267" stroke-linecap="round" stroke-linejoin="round"/>
<path d="M129.965 78.0014C129.282 77.6546 128.517 77.5021 127.753 77.5605C126.989 77.6189 126.256 77.8859 125.634 78.3325C123.333 79.8651 122.179 83.4856 122.179 83.4856" stroke="white" stroke-width="0.267" stroke-linecap="round" stroke-linejoin="round"/>
<path d="M130.077 79.7583C130.077 79.7583 128.213 79.2617 127.06 80.4151C126.498 80.9245 126.017 81.517 125.634 82.172" stroke="white" stroke-width="0.267" stroke-linecap="round" stroke-linejoin="round"/>
</svg>
