<svg width="239" height="238" viewBox="0 0 239 238" fill="none" xmlns="http://www.w3.org/2000/svg">
<g clip-path="url(#clip0_148_256)">
<path d="M238.5 182.022H0.5V182.141H238.5V182.022Z" fill="#EBEBEB"/>
<path d="M214.652 189.681H198.887V189.8H214.652V189.681Z" fill="#EBEBEB"/>
<path d="M158.16 190.976H154.024V191.095H158.16V190.976Z" fill="#EBEBEB"/>
<path d="M198.412 185.264H189.277V185.383H198.412V185.264Z" fill="#EBEBEB"/>
<path d="M46.0294 186.064H25.4709V186.183H46.0294V186.064Z" fill="#EBEBEB"/>
<path d="M53.2833 186.064H50.2703V186.183H53.2833V186.064Z" fill="#EBEBEB"/>
<path d="M107.672 188.072H63.0798V188.191H107.672V188.072Z" fill="#EBEBEB"/>
<path d="M113.312 160.793H21.4009C20.6809 160.792 19.9908 160.505 19.4821 159.995C18.9734 159.486 18.6877 158.795 18.6877 158.075V28.8742C18.694 28.1583 18.9825 27.4738 19.4905 26.9694C19.9985 26.4649 20.685 26.1813 21.4009 26.1801H113.312C114.033 26.1801 114.724 26.4664 115.234 26.9761C115.743 27.4858 116.03 28.1772 116.03 28.898V158.075C116.03 158.796 115.743 159.487 115.234 159.997C114.724 160.507 114.033 160.793 113.312 160.793ZM21.4009 26.2753C20.7125 26.2765 20.0526 26.5509 19.5663 27.0382C19.0799 27.5254 18.8067 28.1858 18.8067 28.8742V158.075C18.8067 158.763 19.0799 159.424 19.5663 159.911C20.0526 160.398 20.7125 160.673 21.4009 160.674H113.312C114.001 160.673 114.661 160.398 115.148 159.911C115.635 159.424 115.909 158.764 115.911 158.075V28.8742C115.909 28.1853 115.635 27.525 115.148 27.0379C114.661 26.5507 114.001 26.2765 113.312 26.2753H21.4009Z" fill="#EBEBEB"/>
<path d="M216.276 160.793H124.36C123.64 160.792 122.949 160.505 122.44 159.995C121.93 159.486 121.644 158.795 121.642 158.075V28.8742C121.65 28.1579 121.939 27.4734 122.448 26.9691C122.957 26.4648 123.644 26.1813 124.36 26.1801H216.276C216.991 26.1825 217.676 26.4667 218.183 26.971C218.69 27.4753 218.978 28.1591 218.984 28.8742V158.075C218.984 158.794 218.699 159.484 218.192 159.993C217.684 160.503 216.995 160.79 216.276 160.793ZM124.36 26.2753C123.671 26.2765 123.011 26.5507 122.524 27.0379C122.037 27.525 121.763 28.1853 121.761 28.8742V158.075C121.763 158.764 122.037 159.424 122.524 159.911C123.011 160.398 123.671 160.673 124.36 160.674H216.276C216.965 160.673 217.625 160.398 218.112 159.911C218.599 159.424 218.874 158.764 218.875 158.075V28.8742C218.874 28.1853 218.599 27.525 218.112 27.0379C217.625 26.5507 216.965 26.2765 216.276 26.2753H124.36Z" fill="#EBEBEB"/>
<path d="M29.4693 93.7197H64.3696V36.0142L29.4693 36.0142L29.4693 93.7197Z" fill="#F5F5F5"/>
<path d="M29.4646 36.0094H28.7744V93.7149H29.4646V36.0094Z" fill="#E0E0E0"/>
<path d="M33.0108 91.1779H60.833L60.833 38.5513H33.0108L33.0108 91.1779Z" fill="#FAFAFA"/>
<path d="M72.6046 113.974H107.505V56.268L72.6046 56.268V113.974Z" fill="#F5F5F5"/>
<path d="M72.6047 56.2727H71.9146V113.978H72.6047V56.2727Z" fill="#E0E0E0"/>
<path d="M76.1458 111.436H103.968V58.8098H76.1458V111.436Z" fill="#FAFAFA"/>
<path d="M50.0993 167.109C50.9656 151.401 48.6713 126.173 46.1914 117.42C45.8629 116.263 45.4916 114.921 44.9252 114.744C43.3068 114.23 42.5785 116.767 42.7784 117.643C43.7304 121.861 44.6206 132.328 45.4916 150.535C45.9248 159.579 45.4916 165.805 46.6531 167.114L50.0993 167.109Z" fill="url(#paint0_linear_148_256)"/>
<path d="M47.5195 132.1C49.7948 124.745 78.9355 117.191 70.5341 125.102C68.4445 127.073 58.715 132.266 54.7214 137.726C51.6179 141.967 48.481 149.102 47.6528 153.058C47.291 144.737 46.0058 137.002 47.5195 132.1Z" fill="url(#paint1_linear_148_256)"/>
<path d="M50.8371 141.424C55.9112 130.234 72.1381 128.225 67.7779 134.132C66.0643 136.45 59.7811 139.097 55.7827 144.556C52.6792 148.798 49.5424 155.928 48.7189 159.888C48.3524 151.563 48.7189 146.099 50.8371 141.424Z" fill="url(#paint2_linear_148_256)"/>
<path d="M44.4586 140.472C38.4514 126.078 16.7506 124.931 22.5245 131.619C24.7188 134.165 32.3872 138.825 38.1801 144.832C42.6831 149.497 47.7572 157.208 49.4851 161.492C48.3665 152.663 46.8814 146.28 44.4586 140.472Z" fill="url(#paint3_linear_148_256)"/>
<path d="M46.9813 124.365C52.3601 114.507 68.6393 113.45 63.9888 118.843C62.1657 120.966 56.2348 123.655 52.3601 128.953C49.347 133.066 45.7294 138.435 44.925 142.281C44.5728 134.199 44.5966 128.739 46.9813 124.365Z" fill="url(#paint4_linear_148_256)"/>
<path d="M42.2976 124.56C38.0565 118.429 19.0641 111.689 23.9954 117.239C29.1886 123.06 32.8776 122.061 37.7994 127.144C41.6074 131.095 45.8914 137.645 47.367 141.234C46.4103 133.756 45.3345 128.939 42.2976 124.56Z" fill="url(#paint5_linear_148_256)"/>
<path d="M47.3384 117.5C50.0325 112.655 61.1424 109.09 58.2435 112.807C56.2205 115.387 53.7929 117.158 51.2178 120.671C49.2233 123.403 46.5101 126.835 45.9818 129.381C45.7438 124.026 45.72 120.39 47.3384 117.5Z" fill="url(#paint6_linear_148_256)"/>
<path d="M42.9542 118.967C40.241 115.958 25.7277 108.818 29.0597 113.402C30.3592 115.206 35.8951 119.59 39.6222 123.465C42.521 126.464 45.7007 128.91 46.8098 131.638C46.0767 125.969 45.6721 121.97 42.9542 118.967Z" fill="url(#paint7_linear_148_256)"/>
<path d="M46.6717 129.524C42.7066 125.136 13.7991 119.481 21.2295 124.326C23.7713 125.983 34.9478 128.829 40.398 134.48C44.6296 138.863 46.1528 146.137 47.776 150.121C52.0505 143.119 50.6415 133.918 46.6717 129.524Z" fill="url(#paint8_linear_148_256)"/>
<path d="M41.7214 166.472L42.0927 179.604C42.1307 182.099 42.7115 182.022 43.4159 182.022H52.7598C53.4595 182.022 54.0403 182.099 54.0831 179.604L54.4544 166.472C54.4972 163.768 53.8927 161.488 53.1311 161.488H43.0447C42.2831 161.488 41.6785 163.768 41.7214 166.472Z" fill="#93745C"/>
<path d="M41.1647 163.882H55.0116C55.1024 163.887 55.1921 163.86 55.2646 163.805C55.3371 163.75 55.3875 163.671 55.4066 163.582L55.7351 161.069C55.7373 161.017 55.7285 160.966 55.7092 160.918C55.6899 160.87 55.6605 160.827 55.6231 160.791C55.5856 160.755 55.541 160.728 55.4922 160.711C55.4433 160.694 55.3914 160.688 55.34 160.693H40.8315C40.7802 160.689 40.7287 160.696 40.6802 160.713C40.6317 160.73 40.5874 160.757 40.5501 160.793C40.5128 160.828 40.4835 160.871 40.4639 160.919C40.4443 160.966 40.4349 161.017 40.4364 161.069L40.7649 163.582C40.785 163.671 40.8364 163.751 40.9096 163.806C40.9829 163.861 41.0733 163.888 41.1647 163.882Z" fill="#654321"/>
<path d="M138.954 108.318H128.472V178.843H138.954V108.318Z" fill="#F0F0F0"/>
<path d="M209.94 178.843H130.486V182.022H209.94V178.843Z" fill="#F0F0F0"/>
<path d="M138.954 178.843H211.953V108.318L138.954 108.318V178.843Z" fill="#F5F5F5"/>
<path d="M137.869 105.543H127.154V108.319H137.869V105.543Z" fill="#F0F0F0"/>
<path d="M137.869 108.318L213.272 108.318V105.543L137.869 105.543V108.318Z" fill="#FAFAFA"/>
<path d="M208.131 141.615H142.776V114.193H208.131V141.615ZM143.395 141.015H207.531V114.792H143.376L143.395 141.015Z" fill="#E0E0E0"/>
<path d="M208.131 172.969H142.776V145.927H208.131V172.969ZM143.395 172.369H207.531V146.527H143.376L143.395 172.369Z" fill="#E0E0E0"/>
<path d="M188.178 119.585H162.731C162.432 119.584 162.146 119.465 161.934 119.254C161.723 119.042 161.604 118.756 161.603 118.457C161.604 118.159 161.723 117.872 161.934 117.661C162.146 117.45 162.432 117.33 162.731 117.329H188.178C188.476 117.33 188.763 117.45 188.974 117.661C189.185 117.872 189.304 118.159 189.306 118.457C189.304 118.756 189.185 119.042 188.974 119.254C188.763 119.465 188.476 119.584 188.178 119.585Z" fill="#E0E0E0"/>
<path d="M188.182 149.064H162.731C162.108 149.064 161.603 149.569 161.603 150.192C161.603 150.815 162.108 151.32 162.731 151.32H188.182C188.805 151.32 189.31 150.815 189.31 150.192C189.31 149.569 188.805 149.064 188.182 149.064Z" fill="#E0E0E0"/>
<path d="M172.055 105.515H202.329L204.785 78.5209H174.511L172.055 105.515Z" fill="#E6E6E6"/>
<path d="M171.027 105.515H201.3L203.757 78.5209H173.483L171.027 105.515Z" fill="#F0F0F0"/>
<path d="M198.583 102.526L200.496 81.5103H176.201L174.288 102.526H198.583Z" fill="#FFE6E6"/>
<path d="M165.044 85.8037L163.25 105.515H177.758L179.553 85.8037H165.044Z" fill="#E6E6E6"/>
<path d="M164.292 85.8037L162.497 105.515H177.006L178.8 85.8037H164.292Z" fill="#F0F0F0"/>
<path d="M166.276 87.9838L164.877 103.335H175.025L176.42 87.9838H166.276Z" fill="#FFE6E6"/>
<path d="M119.499 203.519C170.471 203.519 211.791 201.106 211.791 198.13C211.791 195.154 170.471 192.742 119.499 192.742C68.5281 192.742 27.2078 195.154 27.2078 198.13C27.2078 201.106 68.5281 203.519 119.499 203.519Z" fill="#DC5303"/>
<path d="M141.548 54.1307C141.11 53.0209 140.452 52.0111 139.614 51.1619C138.776 50.3127 137.775 49.6417 136.671 49.1891C135.567 48.7365 134.383 48.5117 133.19 48.5282C131.997 48.5447 130.82 48.8021 129.729 49.285C125.673 51.0748 123.474 56.2775 125.002 60.433C125.765 62.5311 127.296 64.2613 129.286 65.2739C130.114 65.6704 130.816 66.2882 131.314 67.0589L132.571 69.0676C132.983 69.7251 133.612 70.218 134.349 70.4613C135.086 70.7046 135.884 70.6831 136.607 70.4004L139.777 69.1485C140.498 68.8612 141.097 68.3311 141.468 67.6498C141.84 66.9684 141.963 66.1786 141.815 65.4167L141.339 63.0081C141.186 62.1554 141.273 61.277 141.591 60.471C142.364 58.4256 142.349 56.1655 141.548 54.1307Z" fill="#654321"/>
<path d="M137.026 74.4084C136.823 74.4078 136.622 74.3657 136.436 74.2846C136.256 74.2087 136.094 74.0975 135.958 73.9577C135.822 73.8179 135.716 73.6523 135.646 73.4707C135.506 73.1075 135.516 72.7042 135.672 72.3479C135.828 71.9916 136.117 71.711 136.479 71.5667L140.682 69.9054C141.045 69.7651 141.448 69.7738 141.805 69.9299C142.162 70.0859 142.442 70.3765 142.586 70.7384C142.661 70.9177 142.7 71.1103 142.7 71.3049C142.7 71.4994 142.661 71.692 142.586 71.8713C142.429 72.2317 142.137 72.5157 141.772 72.6615L137.588 74.3037C137.409 74.3761 137.218 74.4117 137.026 74.4084ZM141.224 70.2624C141.099 70.2618 140.974 70.2861 140.858 70.3338L136.636 71.9951C136.45 72.0666 136.29 72.1919 136.176 72.3548C136.062 72.5177 136 72.7109 135.996 72.9097C135.992 73.1084 136.048 73.3038 136.156 73.4707C136.264 73.6376 136.419 73.7685 136.602 73.8467C136.724 73.8985 136.855 73.9253 136.988 73.9253C137.12 73.9253 137.251 73.8985 137.373 73.8467L141.576 72.1902C141.699 72.1413 141.81 72.0685 141.904 71.9762C141.998 71.8839 142.073 71.7738 142.124 71.6523C142.177 71.5316 142.204 71.4011 142.204 71.2692C142.204 71.1372 142.177 71.0067 142.124 70.886C142.048 70.6961 141.917 70.5335 141.747 70.4197C141.577 70.3058 141.376 70.246 141.172 70.2481L141.224 70.2624Z" fill="#263238"/>
<path d="M139.168 76.9692C139.04 76.9678 138.914 76.942 138.797 76.893C138.579 76.7895 138.409 76.6075 138.321 76.3837L138.249 76.1981C138.205 76.0856 138.183 75.9654 138.184 75.8443C138.186 75.7233 138.212 75.6039 138.26 75.4928C138.309 75.3818 138.378 75.2814 138.465 75.1974C138.553 75.1134 138.655 75.0474 138.768 75.0033L141.391 73.9656C141.619 73.8827 141.871 73.8902 142.094 73.9867C142.317 74.0831 142.494 74.2612 142.59 74.4844L142.662 74.6701C142.749 74.8975 142.744 75.1502 142.647 75.3738C142.55 75.5973 142.369 75.7737 142.143 75.8649L139.492 76.9025C139.389 76.9444 139.279 76.967 139.168 76.9692ZM141.715 74.375C141.659 74.3766 141.604 74.3878 141.553 74.4083L138.93 75.446C138.875 75.467 138.826 75.4986 138.783 75.539C138.741 75.5795 138.707 75.6278 138.684 75.6814C138.66 75.7349 138.648 75.7926 138.647 75.851C138.646 75.9095 138.656 75.9676 138.678 76.0219L138.749 76.2076C138.771 76.2623 138.803 76.3122 138.844 76.3545C138.884 76.3968 138.933 76.4307 138.987 76.4541C139.041 76.4775 139.099 76.4901 139.158 76.4911C139.217 76.4921 139.275 76.4815 139.33 76.4599L141.953 75.4222C142.007 75.4008 142.058 75.3687 142.1 75.3279C142.143 75.287 142.177 75.2382 142.2 75.1842C142.222 75.1306 142.234 75.0732 142.234 75.0152C142.234 74.9572 142.222 74.8997 142.2 74.8462L142.129 74.6606C142.093 74.579 142.036 74.5091 141.962 74.4586C141.889 74.4081 141.803 74.3791 141.715 74.375Z" fill="#263238"/>
<path d="M131.357 62.5749C131.032 62.5755 130.713 62.4876 130.435 62.3206C130.157 62.1536 129.929 61.9139 129.777 61.6272C129.625 61.3406 129.553 61.0179 129.571 60.6937C129.588 60.3696 129.694 60.0564 129.876 59.7878C130.058 59.5192 130.31 59.3054 130.605 59.1693C130.9 59.0332 131.226 58.9801 131.549 59.0156C131.871 59.0511 132.178 59.1739 132.436 59.3708C132.694 59.5677 132.894 59.8312 133.013 60.133L133.67 61.7942L132.009 62.4464C131.802 62.5305 131.58 62.5742 131.357 62.5749ZM131.357 59.4809C131.163 59.4788 130.971 59.5198 130.795 59.6007C130.62 59.6817 130.464 59.8007 130.339 59.9491C130.215 60.0975 130.125 60.2717 130.076 60.459C130.027 60.6464 130.021 60.8422 130.056 61.0325C130.092 61.2228 130.17 61.4027 130.284 61.5594C130.398 61.716 130.545 61.8454 130.715 61.9383C130.885 62.0312 131.073 62.0853 131.266 62.0966C131.46 62.1079 131.653 62.0761 131.833 62.0037L133.051 61.5277L132.575 60.3139C132.477 60.071 132.307 59.8634 132.089 59.7182C131.871 59.573 131.614 59.497 131.352 59.4999L131.357 59.4809Z" fill="#FFE6E6"/>
<path d="M136.621 70.5622L133.056 61.523L136.336 60.2283L139.901 69.2675L139.458 69.4436L136.064 60.8471L133.67 61.7943L137.064 70.3861L136.621 70.5622Z" fill="#FFE6E6"/>
<path d="M136.065 60.8472L135.413 59.186C135.283 58.8575 135.253 58.498 135.328 58.1527C135.402 57.8075 135.577 57.4921 135.831 57.2465C136.085 57.0009 136.406 56.8361 136.753 56.773C137.101 56.7099 137.459 56.7513 137.783 56.8919C138.107 57.0326 138.382 57.2662 138.573 57.5631C138.764 57.8601 138.863 58.2071 138.857 58.5603C138.851 58.9134 138.74 59.2568 138.539 59.5469C138.337 59.8371 138.055 60.061 137.726 60.1903L136.065 60.8472ZM137.069 57.2201C136.906 57.2223 136.744 57.2546 136.593 57.3153C136.433 57.3782 136.287 57.4723 136.163 57.5919C136.04 57.7115 135.941 57.8544 135.873 58.0124C135.805 58.1703 135.769 58.3402 135.766 58.5122C135.764 58.6842 135.796 58.855 135.86 59.0146L136.336 60.2284L137.55 59.7524C137.834 59.6411 138.069 59.4342 138.217 59.1676C138.365 58.9009 138.414 58.5911 138.358 58.2916C138.302 57.9921 138.143 57.7216 137.908 57.5269C137.674 57.3322 137.379 57.2253 137.074 57.2248L137.069 57.2201Z" fill="#FFE6E6"/>
<path d="M143.457 83.5333C141.669 83.5357 139.885 83.3908 138.121 83.1001L138.202 82.6241C139.932 82.9098 141.684 83.0531 143.438 83.0525L143.457 83.5333Z" fill="#654321"/>
<path d="M153.296 88.4646L153.548 87.9505C154.426 85.9961 154.602 83.7987 154.048 81.7292C152.196 82.393 150.282 82.8714 148.336 83.1572L148.264 82.6812C150.259 82.3827 152.218 81.8786 154.109 81.177L154.347 81.0914L154.419 81.3294C155.023 83.3948 154.945 85.6001 154.195 87.6173C160.045 85.2897 166.152 77.0263 166.152 67.1826C166.152 58.4433 155.961 51.3318 143.433 51.3318C130.904 51.3318 120.718 58.4433 120.718 67.1826C120.718 73.5372 126.13 79.2635 134.522 81.7673L134.384 82.2433C125.816 79.6776 120.256 73.7752 120.256 67.2017C120.256 58.2005 130.662 50.8749 143.447 50.8749C156.232 50.8749 166.643 58.2005 166.643 67.2017C166.643 77.5499 159.979 86.1988 153.838 88.279L153.296 88.4646Z" fill="#654321"/>
<path d="M166.51 54.8943L150.654 57.7273C149.515 57.9308 148.757 59.0188 148.96 60.1575L150.648 69.604C150.851 70.7427 151.939 71.5008 153.078 71.2974L168.935 68.4643C170.073 68.2609 170.832 67.1729 170.628 66.0342L168.94 56.5876C168.737 55.449 167.649 54.6908 166.51 54.8943Z" fill="#654321"/>
<path d="M162.702 62.5892L157.085 60.5614L158.137 66.4352L162.702 62.5892Z" fill="#FFE6E6"/>
<path d="M102.964 141.215H62.5226C61.684 141.215 61.0042 141.895 61.0042 142.733V144.89C61.0042 145.728 61.684 146.408 62.5226 146.408H102.964C103.802 146.408 104.482 145.728 104.482 144.89V142.733C104.482 141.895 103.802 141.215 102.964 141.215Z" fill="#654321"/>
<path d="M102.507 195.274H103.711L102.326 146.408H100.655L102.507 195.274Z" fill="#654321"/>
<path opacity="0.3" d="M102.507 195.274H103.711L102.326 146.408H100.655L102.507 195.274Z" fill="#FFE6E6"/>
<path d="M91.402 195.274H90.1978L91.5877 146.408H93.2537L91.402 195.274Z" fill="#654321"/>
<path opacity="0.3" d="M91.402 195.274H90.1978L91.5877 146.408H93.2537L91.402 195.274Z" fill="#FFE6E6"/>
<path d="M74.0848 195.274H75.2938L73.9039 146.408H72.2332L74.0848 195.274Z" fill="#654321"/>
<path opacity="0.3" d="M74.0848 195.274H75.2938L73.9039 146.408H72.2332L74.0848 195.274Z" fill="#FFE6E6"/>
<path d="M62.9842 195.274H61.7751L63.1651 146.408H64.8311L62.9842 195.274Z" fill="#654321"/>
<path opacity="0.3" d="M62.9842 195.274H61.7751L63.1651 146.408H64.8311L62.9842 195.274Z" fill="#FFE6E6"/>
<path d="M115.363 182.855L119.657 181.404L116.125 171.379L111.836 172.831L115.363 182.855Z" fill="#FFC3BD"/>
<path d="M119.338 179.747L114.635 181.832C114.596 181.846 114.561 181.868 114.531 181.896C114.501 181.925 114.478 181.96 114.463 181.998C114.449 182.037 114.442 182.078 114.445 182.119C114.447 182.16 114.459 182.2 114.478 182.237L116.263 185.864C116.375 186.054 116.551 186.197 116.76 186.268C116.969 186.339 117.196 186.332 117.401 186.249C119.024 185.502 119.752 185.069 121.823 184.16C123.098 183.603 125.664 182.608 127.254 181.584C128.844 180.561 127.597 179.085 126.816 179.381C124.964 180.085 121.885 180.056 120.2 179.695C119.914 179.623 119.613 179.641 119.338 179.747Z" fill="#263238"/>
<path opacity="0.2" d="M111.836 172.836L116.13 171.379L118.143 177.115L113.778 178.362L111.836 172.836Z" fill="black"/>
<path d="M84.9514 127.658C84.9514 127.658 106.371 131.523 108.099 138.559C111.493 152.467 119.147 174.221 119.147 174.221L110.998 176.601C110.998 176.601 99.3457 151.653 97.8796 143.257C85.8606 143.257 71.2236 144.209 69.3196 139.125C67.6488 134.613 68.2438 127.677 68.2438 127.677L84.9514 127.658Z" fill="#263238"/>
<path d="M110.551 178.024L120.071 174.882L119.257 170.584L108.875 174.24L110.551 178.024Z" fill="#654321"/>
<path d="M96.7045 184.379L101.445 184.74L98.6608 173.04L94.2388 174.04L96.7045 184.379Z" fill="#FFC3BD"/>
<path d="M101.326 183.598L96.2189 183.031C96.1778 183.024 96.1356 183.025 96.0951 183.036C96.0546 183.046 96.0168 183.065 95.9842 183.091C95.9517 183.117 95.9252 183.15 95.9066 183.187C95.8879 183.225 95.8775 183.266 95.8762 183.307L95.6096 187.344C95.6187 187.562 95.7026 187.771 95.8474 187.935C95.9922 188.099 96.1889 188.208 96.4045 188.244C98.18 188.41 99.0321 188.396 101.279 188.643C102.659 188.796 105.382 189.219 107.272 189.119C109.161 189.019 108.819 187.12 107.99 186.992C106.034 186.673 103.387 185.112 102.107 183.955C101.891 183.757 101.618 183.632 101.326 183.598Z" fill="#263238"/>
<path opacity="0.2" d="M94.2388 174.045L98.6608 173.045L100.065 178.957L95.5954 179.742L94.2388 174.045Z" fill="black"/>
<path d="M73.8041 127.658C73.8041 127.658 99.8461 131.557 98.6513 141.415C96.933 155.628 101.345 176.187 101.345 176.187L92.9917 177.681C92.9917 177.681 86.8513 152.129 86.8037 143.604C78.3309 143.604 63.5273 144.209 61.6328 139.106C59.9621 134.594 60.5571 127.658 60.5571 127.658H73.8041Z" fill="#263238"/>
<path d="M92.4155 179.071L102.216 176.939L101.855 172.583L91.1445 175.13L92.4155 179.071Z" fill="#654321"/>
<path d="M87.5414 100.265C88.2364 102.987 88.9171 105.734 89.5835 108.471C90.2499 111.208 90.902 113.95 91.5922 116.653L92.111 118.667L92.3776 119.657L92.5156 120.133V120.195V120.223C92.5156 120.223 92.5156 120.18 92.4918 120.161C92.4558 120.064 92.4112 119.97 92.3585 119.881L92.2871 119.771L92.2348 119.7L92.1396 119.595C92.0396 119.5 92.0253 119.514 92.0491 119.538C92.1004 119.591 92.1579 119.637 92.2205 119.676C92.43 119.817 92.6495 119.943 92.8774 120.052C93.3915 120.304 93.9912 120.528 94.6053 120.775C97.0805 121.694 99.8127 122.475 102.469 123.317L102.05 126.354C100.588 126.371 99.1266 126.314 97.6707 126.183C96.1893 126.061 94.716 125.854 93.2582 125.564C92.4754 125.412 91.7028 125.212 90.9448 124.964C90.5074 124.824 90.0796 124.656 89.6644 124.46C89.4091 124.341 89.1625 124.204 88.9266 124.05C88.5984 123.841 88.2963 123.593 88.0269 123.313C87.9413 123.217 87.8603 123.127 87.7651 123.003L87.6319 122.822L87.4986 122.599C87.4005 122.431 87.3161 122.256 87.2463 122.075L87.1701 121.856L86.9845 121.332L86.6275 120.295C86.3943 119.605 86.1515 118.914 85.9563 118.229C85.0948 115.478 84.3094 112.741 83.5763 109.985C82.8433 107.229 82.1483 104.477 81.5105 101.688L87.5414 100.265Z" fill="#FFC3BD"/>
<path d="M80.8486 96.9707C83.4619 94.0576 87.6031 96.0948 89.35 102.616C90.1973 105.786 89.9307 107.443 89.9307 107.443L80.9153 110.223C78.9779 105.939 77.2929 100.941 80.8486 96.9707Z" fill="#654321"/>
<g opacity="0.2">
<path d="M80.8486 96.9707C83.4619 94.0576 87.6031 96.0948 89.35 102.616C90.1973 105.786 89.9307 107.443 89.9307 107.443L80.9153 110.223C78.9779 105.939 77.2929 100.941 80.8486 96.9707Z" fill="black"/>
</g>
<path d="M107.195 122.094L106.386 121.846C105.896 121.698 105.381 121.651 104.872 121.708L103.135 121.913C102.575 122.046 102.049 122.296 101.592 122.646C101.135 122.996 100.757 123.439 100.484 123.946L99.8933 125.097C100.188 127.22 104.491 126.525 104.491 126.525H108.552L108.418 123.641C108.398 123.289 108.27 122.951 108.051 122.674C107.832 122.398 107.533 122.195 107.195 122.094Z" fill="#FFC3BD"/>
<path d="M109.98 117.448C109.865 118.23 109.535 118.965 109.028 119.571C108.595 120.204 108.148 120.832 107.695 121.475C106.786 122.717 105.858 123.941 104.839 125.107C104.795 125.157 104.733 125.19 104.666 125.198C104.6 125.206 104.532 125.19 104.477 125.152C104.421 125.114 104.381 125.057 104.365 124.992C104.348 124.926 104.356 124.857 104.387 124.798C105.092 123.417 105.887 122.103 106.7 120.799C107.11 120.149 107.529 119.503 107.957 118.862C108.327 118.161 108.882 117.575 109.561 117.167C109.612 117.137 109.669 117.121 109.728 117.121C109.787 117.122 109.845 117.139 109.895 117.171C109.944 117.202 109.984 117.248 110.009 117.301C110.034 117.354 110.044 117.413 110.037 117.472L109.98 117.448Z" fill="#263238"/>
<path d="M81.4535 94.148L76.3746 92.72L69.8391 92.4154C68.848 92.3689 67.8691 92.6493 67.0529 93.2135C66.2368 93.7776 65.6286 94.5943 65.3219 95.5379C64.0748 99.3459 62.9419 104.829 62.0946 109.575C61.0893 115.552 60.5783 121.602 60.5667 127.663H84.9521C85.4519 114.121 87.0465 107.505 87.989 102.711C88.2654 101.291 88.0625 99.8195 87.4121 98.5272C86.7616 97.2349 85.7005 96.1952 84.3952 95.5713L81.4535 94.148Z" fill="#654321"/>
<path d="M74.6416 95.1001C75.2604 96.6899 77.6547 100.089 80.4393 101.417C81.9863 100.298 82.3195 97.8561 82.5527 96.7137L74.6416 95.1001Z" fill="#FFE6E6"/>
<path d="M82.5525 96.7137C82.7331 96.0854 82.6578 95.4112 82.3431 94.8382C81.948 94.2194 82.048 93.5102 82.443 92.7819C82.7563 92.202 83.1488 91.6685 83.6092 91.1968L80.4153 87.4602L77.8116 84.4424C77.5878 87.2651 77.3689 90.7637 75.1412 92.9533C74.3558 93.7291 74.1892 93.9624 74.6414 95.1C75.2602 96.6899 77.4974 98.908 80.2582 100.236C80.8562 99.8316 81.3673 99.3117 81.7613 98.7067C82.1553 98.1018 82.4244 97.4241 82.5525 96.7137Z" fill="#FFC3BD"/>
<path opacity="0.2" d="M82.6288 90.5542L80.8248 87.6268C80.7915 87.703 80.7486 87.7839 80.7058 87.8696C80.5434 88.232 80.4128 88.6079 80.3155 88.993C79.987 90.2924 81.0914 92.1488 82.3004 93.0342C82.3528 92.9533 82.3956 92.8676 82.4432 92.7819C82.7511 92.2322 83.1165 91.7169 83.5332 91.2444C83.5571 91.2262 83.5826 91.2103 83.6094 91.1968L82.6288 90.5542Z" fill="black"/>
<path d="M88.9314 83.557C89.3503 86.2559 93.2154 79.3111 91.0543 77.7879C88.4173 75.922 88.1412 78.421 88.9314 83.557Z" fill="#263238"/>
<path d="M77.9307 80.0347C77.6832 84.4186 77.3071 86.9652 79.3206 89.4976C82.348 93.3056 88.1599 92.0489 89.7641 87.8554C91.1921 84.0759 91.3682 77.5452 87.1556 75.2318C82.943 72.9185 78.1782 75.6555 77.9307 80.0347Z" fill="#FFC3BD"/>
<path d="M86.5704 77.4023C86.5704 77.4023 89.3741 80.1536 91.3733 79.0159C93.3725 77.8783 93.7771 74.9318 91.3733 72.3519C90.2166 71.1096 88.4649 69.8958 85.0282 69.9719C85.2993 70.236 85.6239 70.4389 85.9802 70.5669C85.9802 70.5669 81.62 69.8386 78.5831 71.0905C78.8263 71.4565 79.1525 71.7599 79.5351 71.9759C76.5792 71.7522 73.7041 72.9279 75.7271 75.7029C73.0472 75.9647 72.4475 79.3919 73.8755 81.6529C75.3035 83.9139 75.5558 85.6085 77.4645 86.6367C77.4645 83.5569 78.1738 82.8287 78.1738 82.8287C79.5494 82.2432 81.1345 79.311 80.8156 77.8307C83.7572 79.0159 86.8941 79.4062 86.5704 77.4023Z" fill="#263238"/>
<path d="M76.4311 75.603C75.4984 74.9381 74.7737 74.022 74.3415 72.9612C73.9988 74.4939 75.5839 76.2408 75.5839 76.2408L76.4311 75.603Z" fill="#263238"/>
<path d="M75.7416 82.4289C75.7742 83.4328 76.168 84.3911 76.8507 85.1278C77.7598 86.0798 78.9974 85.2706 79.2307 84.0473C79.4211 82.9478 78.9546 81.2675 77.8027 80.7724C76.6507 80.2774 75.7083 81.2008 75.7416 82.4289Z" fill="#FFC3BD"/>
<path d="M85.1088 82.2957C85.0374 82.6575 85.1659 82.9954 85.3992 83.0526C85.6324 83.1097 85.8752 82.8622 85.9561 82.5004C86.037 82.1386 85.899 81.8007 85.6657 81.7436C85.4325 81.6864 85.1802 81.9387 85.1088 82.2957Z" fill="#263238"/>
<path d="M89.1548 83.2618C89.0786 83.6235 89.2119 83.9567 89.4451 84.0139C89.6784 84.071 89.9211 83.8235 90.0021 83.4617C90.083 83.0999 89.9402 82.762 89.7069 82.7096C89.4737 82.6572 89.2262 82.9 89.1548 83.2618Z" fill="#263238"/>
<path d="M87.8077 83.2334C87.913 84.2702 88.1563 85.2884 88.5313 86.2608C87.8649 86.5987 87.0271 86.0894 87.0271 86.0894L87.8077 83.2334Z" fill="#ED847E"/>
<path d="M86.2801 88.1123C85.8609 88.0245 85.4639 87.8527 85.1129 87.6073C84.7619 87.3619 84.4643 87.0479 84.2381 86.6843C84.229 86.6717 84.2226 86.6573 84.2195 86.6421C84.2164 86.6269 84.2165 86.6112 84.2199 86.5961C84.2233 86.581 84.2299 86.5667 84.2392 86.5543C84.2486 86.5419 84.2604 86.5316 84.274 86.5242C84.2876 86.5167 84.3026 86.5122 84.3181 86.511C84.3336 86.5097 84.3491 86.5118 84.3637 86.517C84.3783 86.5223 84.3916 86.5306 84.4028 86.5413C84.414 86.5521 84.4227 86.5651 84.4285 86.5795C84.6807 86.9681 85.0187 87.2938 85.4164 87.5314C85.8141 87.769 86.261 87.9124 86.7228 87.9504C86.7368 87.9509 86.7505 87.9544 86.7631 87.9606C86.7757 87.9668 86.7869 87.9755 86.7958 87.9863C86.8048 87.9971 86.8114 88.0096 86.8152 88.0231C86.8191 88.0366 86.82 88.0508 86.818 88.0647C86.8174 88.0788 86.8139 88.0928 86.8078 88.1056C86.8017 88.1184 86.793 88.1298 86.7823 88.1391C86.7716 88.1485 86.7591 88.1556 86.7456 88.16C86.7321 88.1643 86.7179 88.1659 86.7037 88.1646C86.5616 88.1556 86.4201 88.1381 86.2801 88.1123Z" fill="#263238"/>
<path d="M84.5758 80.8391C84.5426 80.8258 84.5132 80.8045 84.4901 80.7772C84.4542 80.7328 84.437 80.676 84.4424 80.6191C84.4477 80.5621 84.4751 80.5096 84.5187 80.4726C84.7764 80.2502 85.0849 80.0947 85.4171 80.02C85.7492 79.9453 86.0946 79.9536 86.4227 80.0442C86.477 80.0625 86.5218 80.1016 86.5472 80.1529C86.5726 80.2043 86.5767 80.2636 86.5583 80.3179C86.54 80.3722 86.5009 80.4169 86.4496 80.4424C86.3983 80.4678 86.3389 80.4718 86.2846 80.4535C86.0263 80.3881 85.7559 80.3859 85.4966 80.4472C85.2372 80.5085 84.9964 80.6315 84.7948 80.8058C84.7648 80.8307 84.7285 80.8471 84.6899 80.8529C84.6513 80.8588 84.6119 80.854 84.5758 80.8391Z" fill="#263238"/>
<path d="M89.6545 80.9199C89.6474 80.8854 89.6474 80.8497 89.6545 80.8152C89.6711 80.7606 89.7079 80.7144 89.7575 80.6861C89.807 80.6578 89.8655 80.6495 89.921 80.6629C90.2489 80.7502 90.5505 80.9165 90.7994 81.1471C91.0483 81.3778 91.237 81.6658 91.349 81.9862C91.357 82.0133 91.3595 82.0418 91.3564 82.07C91.3533 82.0982 91.3446 82.1254 91.3309 82.1502C91.3172 82.175 91.2987 82.1969 91.2764 82.2144C91.2542 82.232 91.2287 82.245 91.2015 82.2527C91.1743 82.2607 91.1458 82.2632 91.1176 82.2601C91.0894 82.257 91.0622 82.2483 91.0374 82.2346C91.0126 82.2209 90.9908 82.2024 90.9732 82.1801C90.9556 82.1579 90.9426 82.1324 90.9349 82.1052C90.8433 81.8546 90.6917 81.6303 90.4934 81.4519C90.2951 81.2735 90.0561 81.1464 89.7973 81.0817C89.762 81.0686 89.7305 81.047 89.7055 81.0188C89.6806 80.9905 89.6631 80.9566 89.6545 80.9199Z" fill="#263238"/>
<path d="M70.8571 98.951C69.9431 101.559 69.0292 104.277 68.2153 106.943C67.8011 108.276 67.4251 109.613 67.0871 110.932C66.7596 112.198 66.5053 113.482 66.3255 114.778C66.3255 114.921 66.2875 115.078 66.2827 115.216V115.425C66.2827 115.492 66.2827 115.592 66.2827 115.559C66.2827 115.525 66.2446 115.587 66.2827 115.687C66.4034 116.051 66.5997 116.385 66.8587 116.668C67.6763 117.573 68.6037 118.372 69.6195 119.048C71.9117 120.593 74.305 121.983 76.7833 123.208L75.7646 126.14C74.2896 125.818 72.8351 125.408 71.4092 124.912C69.9564 124.414 68.538 123.821 67.1633 123.137C65.6558 122.401 64.2612 121.454 63.0221 120.323C62.2348 119.598 61.6004 118.722 61.1562 117.748C60.879 117.122 60.7177 116.451 60.6802 115.768C60.6802 115.554 60.6802 115.478 60.6802 115.363V115.03C60.6802 114.807 60.6802 114.602 60.6802 114.388C60.7621 112.803 60.961 111.226 61.2752 109.67C61.5608 108.166 61.9178 106.71 62.3033 105.263C63.0756 102.389 63.9988 99.5573 65.0689 96.7804L70.8571 98.951Z" fill="#FFC3BD"/>
<path d="M69.5202 92.3867C74.1755 92.3439 75.0561 95.9662 72.5238 101.707C71.5548 103.781 70.371 105.748 68.9918 107.576L61.2949 103.487C62.3231 98.9032 64.2033 92.4343 69.5202 92.3867Z" fill="#654321"/>
<path d="M82.3717 122.751L80.6676 121.799C80.389 121.646 80.0688 121.586 79.7537 121.628L77.7069 121.913C76.3313 122.056 75.3269 123.108 74.5796 124.022L73.7085 125.088C73.6657 127.24 79.1016 126.735 79.1016 126.735L83.8616 126.673L83.714 124.798C83.6764 124.372 83.5342 123.963 83.3 123.606C83.0658 123.249 82.7469 122.955 82.3717 122.751Z" fill="#FFC3BD"/>
<path d="M183.922 125.612H55.0732V131.642H183.922V125.612Z" fill="#654321"/>
<path opacity="0.3" d="M96.866 125.612H55.0732V131.642H96.866V125.612Z" fill="#FFE6E6"/>
<path d="M58.5241 131.643H56.5535V198.13H58.5241V131.643Z" fill="#654321"/>
<path opacity="0.7" d="M58.5241 131.643H56.5535V198.13H58.5241V131.643Z" fill="#FFE6E6"/>
<path d="M95.3903 131.643H93.4197V198.13H95.3903V131.643Z" fill="#654321"/>
<path opacity="0.7" d="M95.3903 131.643H93.4197V198.13H95.3903V131.643Z" fill="#FFE6E6"/>
<path d="M145.58 131.643H143.609V198.13H145.58V131.643Z" fill="#654321"/>
<path opacity="0.7" d="M145.58 131.643H143.609V198.13H145.58V131.643Z" fill="#FFE6E6"/>
<path d="M182.446 131.643H180.476V198.13H182.446V131.643Z" fill="#654321"/>
<path opacity="0.7" d="M182.446 131.643H180.476V198.13H182.446V131.643Z" fill="#FFE6E6"/>
<path d="M169.955 98.9558H134.731C134.128 98.9775 133.549 99.2036 133.091 99.5971C132.633 99.9906 132.322 100.528 132.209 101.122L128.534 123.441C128.478 123.707 128.483 123.983 128.548 124.247C128.614 124.51 128.738 124.756 128.912 124.965C129.086 125.174 129.305 125.341 129.553 125.453C129.801 125.565 130.071 125.619 130.343 125.612H165.567C166.172 125.591 166.752 125.365 167.211 124.97C167.671 124.576 167.982 124.036 168.094 123.441L171.769 101.122C171.826 100.855 171.821 100.58 171.755 100.316C171.689 100.052 171.564 99.8059 171.389 99.5973C171.215 99.3886 170.995 99.2224 170.746 99.1113C170.498 99.0001 170.228 98.947 169.955 98.9558Z" fill="#263238"/>
<path d="M147.589 124.155H114.426C114.208 124.155 114.031 124.332 114.031 124.55V125.217C114.031 125.435 114.208 125.612 114.426 125.612H147.589C147.807 125.612 147.984 125.435 147.984 125.217V124.55C147.984 124.332 147.807 124.155 147.589 124.155Z" fill="#263238"/>
<path opacity="0.2" d="M169.956 98.9556H135.503C134.899 98.9774 134.321 99.2035 133.862 99.597C133.404 99.9905 133.093 100.528 132.98 101.121L129.305 123.441C129.248 123.707 129.252 123.983 129.317 124.247C129.383 124.512 129.507 124.758 129.681 124.967C129.856 125.176 130.075 125.343 130.323 125.454C130.572 125.566 130.842 125.62 131.114 125.612H165.543C166.148 125.591 166.729 125.364 167.188 124.97C167.647 124.575 167.959 124.036 168.071 123.441L171.746 101.121C171.801 100.857 171.797 100.584 171.733 100.322C171.668 100.059 171.545 99.8149 171.373 99.6067C171.201 99.3985 170.984 99.2318 170.739 99.1191C170.494 99.0064 170.226 98.9505 169.956 98.9556Z" fill="#FFE6E6"/>
<path d="M78.7832 124.155C78.7832 124.155 90.1263 125.845 95.6003 123.612C98.1612 124.845 107.281 125.455 110.456 124.155C109.476 125.293 107.172 125.612 107.172 125.612H83.2433C80.9442 125.612 79.1878 124.607 78.7832 124.155Z" fill="#654321"/>
<path opacity="0.7" d="M78.7832 124.155C78.7832 124.155 90.1263 125.845 95.6003 123.612C98.1612 124.845 107.281 125.455 110.456 124.155C109.476 125.293 107.172 125.612 107.172 125.612H83.2433C80.9442 125.612 79.1878 124.607 78.7832 124.155Z" fill="#FFE6E6"/>
</g>
<defs>
<linearGradient id="paint0_linear_148_256" x1="46.516" y1="114.676" x2="46.516" y2="167.114" gradientUnits="userSpaceOnUse">
<stop stop-color="#E2BFA3"/>
<stop offset="1" stop-color="#7C6959"/>
</linearGradient>
<linearGradient id="paint1_linear_148_256" x1="59.4249" y1="121.735" x2="59.4249" y2="153.058" gradientUnits="userSpaceOnUse">
<stop stop-color="#E2BFA3"/>
<stop offset="1" stop-color="#7C6959"/>
</linearGradient>
<linearGradient id="paint2_linear_148_256" x1="58.554" y1="130.889" x2="58.554" y2="159.888" gradientUnits="userSpaceOnUse">
<stop stop-color="#E2BFA3"/>
<stop offset="1" stop-color="#7C6959"/>
</linearGradient>
<linearGradient id="paint3_linear_148_256" x1="35.521" y1="127.686" x2="35.521" y2="161.492" gradientUnits="userSpaceOnUse">
<stop stop-color="#E2BFA3"/>
<stop offset="1" stop-color="#7C6959"/>
</linearGradient>
<linearGradient id="paint4_linear_148_256" x1="54.7876" y1="115.616" x2="54.7876" y2="142.281" gradientUnits="userSpaceOnUse">
<stop stop-color="#E2BFA3"/>
<stop offset="1" stop-color="#7C6959"/>
</linearGradient>
<linearGradient id="paint5_linear_148_256" x1="35.2757" y1="115.175" x2="35.2757" y2="141.234" gradientUnits="userSpaceOnUse">
<stop stop-color="#E2BFA3"/>
<stop offset="1" stop-color="#7C6959"/>
</linearGradient>
<linearGradient id="paint6_linear_148_256" x1="52.2928" y1="111.264" x2="52.2928" y2="129.381" gradientUnits="userSpaceOnUse">
<stop stop-color="#E2BFA3"/>
<stop offset="1" stop-color="#7C6959"/>
</linearGradient>
<linearGradient id="paint7_linear_148_256" x1="37.6877" y1="111.907" x2="37.6877" y2="131.638" gradientUnits="userSpaceOnUse">
<stop stop-color="#E2BFA3"/>
<stop offset="1" stop-color="#7C6959"/>
</linearGradient>
<linearGradient id="paint8_linear_148_256" x1="35.2001" y1="122.466" x2="35.2001" y2="150.121" gradientUnits="userSpaceOnUse">
<stop stop-color="#E2BFA3"/>
<stop offset="1" stop-color="#7C6959"/>
</linearGradient>
<clipPath id="clip0_148_256">
<rect width="238" height="238" fill="white" transform="translate(0.5)"/>
</clipPath>
</defs>
</svg>
