<svg width="27" height="26" viewBox="0 0 27 26" fill="none" xmlns="http://www.w3.org/2000/svg">
<path fill-rule="evenodd" clip-rule="evenodd" d="M18.5747 0.38281C16.5521 -0.156292 14.4198 -0.125452 12.4136 0.471918L13.4096 3.81654C14.7988 3.40288 16.2753 3.38152 17.6759 3.75484C19.0765 4.12815 20.3466 4.88158 21.3456 5.9318C22.3446 6.98202 23.0337 8.2881 23.3366 9.70559C23.6395 11.1231 23.5444 12.5967 23.0619 13.9635C22.5794 15.3304 21.7283 16.5371 20.6026 17.4503C19.4769 18.3634 18.1206 18.9474 16.6837 19.1377C15.2467 19.328 13.7851 19.1171 12.4606 18.5284C11.136 17.9397 10.0001 16.9961 9.17849 15.802L6.30354 17.7801C7.49006 19.5045 9.13042 20.8672 11.0432 21.7174C12.956 22.5675 15.0667 22.872 17.1418 22.5973C19.2169 22.3225 21.1755 21.4791 22.8011 20.1604C24.4267 18.8417 25.6559 17.0991 26.3527 15.1252C27.0495 13.1514 27.1867 11.0233 26.7493 8.97631C26.3119 6.92931 25.3168 5.0432 23.8741 3.52657C22.4314 2.00995 20.5973 0.921912 18.5747 0.38281ZM13.5935 10.5097C14.7631 11.3065 15.7206 12.3768 16.3829 13.6276L13.3252 15.2465C12.9264 14.4933 12.3499 13.8488 11.6455 13.3689C10.9412 12.889 10.1304 12.5883 9.2835 12.4929C8.4366 12.3974 7.5792 12.51 6.78571 12.821C5.99222 13.132 5.28662 13.632 4.73016 14.2775C4.17369 14.923 3.78317 15.6946 3.5925 16.5253C3.40182 17.3559 3.41674 18.2206 3.63598 19.0441C3.85521 19.8677 4.27213 20.6254 4.85055 21.2513C5.42896 21.8772 6.1514 22.3525 6.95515 22.636L5.80456 25.8988C4.46983 25.4281 3.27014 24.6388 2.30961 23.5994C1.34908 22.5599 0.656733 21.3018 0.292667 19.9341C-0.0713995 18.5665 -0.0961866 17.1306 0.220457 15.7512C0.5371 14.3718 1.18561 13.0905 2.10969 12.0186C3.03377 10.9466 4.2055 10.1163 5.52319 9.59988C6.84087 9.08342 8.26469 8.89634 9.67107 9.05489C11.0774 9.21344 12.4239 9.71281 13.5935 10.5097Z" fill="#FE5E00"/>
</svg>
